<mxfile host="app.diagrams.net" agent="Mozilla/5.0 (Windows NT 10.0; Win64; x64; rv:137.0) Gecko/20100101 Firefox/137.0" version="26.2.14">
  <diagram name="Σελίδα-1" id="xBLcJgPzouaqXz77RpA7">
    <mxGraphModel dx="5822" dy="3453" grid="1" gridSize="10" guides="1" tooltips="1" connect="1" arrows="1" fold="1" page="1" pageScale="1" pageWidth="827" pageHeight="1169" math="0" shadow="0">
      <root>
        <mxCell id="0" />
        <mxCell id="1" parent="0" />
        <mxCell id="jVKTxxuh7pFr3yUxkHU7-1" style="edgeStyle=none;shape=connector;rounded=0;orthogonalLoop=1;jettySize=auto;html=1;entryX=0.361;entryY=0.94;entryDx=0;entryDy=0;entryPerimeter=0;strokeColor=#FF3333;align=center;verticalAlign=middle;fontFamily=Helvetica;fontSize=11;fontColor=default;labelBackgroundColor=none;endArrow=none;" edge="1" parent="1">
          <mxGeometry relative="1" as="geometry">
            <Array as="points">
              <mxPoint x="370" y="980" />
            </Array>
            <mxPoint x="627.9050000000002" y="598.8" as="targetPoint" />
          </mxGeometry>
        </mxCell>
        <mxCell id="jVKTxxuh7pFr3yUxkHU7-2" style="edgeStyle=none;shape=connector;rounded=0;orthogonalLoop=1;jettySize=auto;html=1;entryX=0.361;entryY=0.94;entryDx=0;entryDy=0;entryPerimeter=0;strokeColor=#FF3333;align=center;verticalAlign=middle;fontFamily=Helvetica;fontSize=11;fontColor=default;labelBackgroundColor=none;endArrow=none;" edge="1" parent="1">
          <mxGeometry relative="1" as="geometry">
            <Array as="points">
              <mxPoint x="365" y="2119" />
            </Array>
            <mxPoint x="622.9050000000007" y="1737.7999999999993" as="targetPoint" />
          </mxGeometry>
        </mxCell>
        <mxCell id="jVKTxxuh7pFr3yUxkHU7-3" style="edgeStyle=none;shape=connector;rounded=0;orthogonalLoop=1;jettySize=auto;html=1;entryX=0.361;entryY=0.94;entryDx=0;entryDy=0;entryPerimeter=0;strokeColor=#FF3333;align=center;verticalAlign=middle;fontFamily=Helvetica;fontSize=11;fontColor=default;labelBackgroundColor=none;endArrow=none;" edge="1" parent="1">
          <mxGeometry relative="1" as="geometry">
            <Array as="points">
              <mxPoint x="2498" y="5220" />
            </Array>
            <mxPoint x="2755.905" y="4838.799999999999" as="targetPoint" />
          </mxGeometry>
        </mxCell>
        <mxCell id="jVKTxxuh7pFr3yUxkHU7-4" style="edgeStyle=none;shape=connector;rounded=0;orthogonalLoop=1;jettySize=auto;html=1;entryX=0.361;entryY=0.94;entryDx=0;entryDy=0;entryPerimeter=0;strokeColor=#FF3333;align=center;verticalAlign=middle;fontFamily=Helvetica;fontSize=11;fontColor=default;labelBackgroundColor=none;endArrow=none;" edge="1" parent="1">
          <mxGeometry relative="1" as="geometry">
            <Array as="points">
              <mxPoint x="638" y="1910" />
            </Array>
            <mxPoint x="895.9050000000002" y="1528.8" as="targetPoint" />
          </mxGeometry>
        </mxCell>
        <mxCell id="jVKTxxuh7pFr3yUxkHU7-5" style="edgeStyle=none;shape=connector;rounded=0;orthogonalLoop=1;jettySize=auto;html=1;entryX=0.361;entryY=0.94;entryDx=0;entryDy=0;entryPerimeter=0;strokeColor=#FF3333;align=center;verticalAlign=middle;fontFamily=Helvetica;fontSize=11;fontColor=default;labelBackgroundColor=none;endArrow=none;" edge="1" parent="1">
          <mxGeometry relative="1" as="geometry">
            <Array as="points">
              <mxPoint x="358" y="1030" />
            </Array>
            <mxPoint x="615.9050000000002" y="648.8" as="targetPoint" />
          </mxGeometry>
        </mxCell>
        <mxCell id="jVKTxxuh7pFr3yUxkHU7-6" style="edgeStyle=none;shape=connector;rounded=0;orthogonalLoop=1;jettySize=auto;html=1;entryX=0.361;entryY=0.94;entryDx=0;entryDy=0;entryPerimeter=0;strokeColor=#FF3333;align=center;verticalAlign=middle;fontFamily=Helvetica;fontSize=11;fontColor=default;labelBackgroundColor=none;endArrow=none;" edge="1" parent="1">
          <mxGeometry relative="1" as="geometry">
            <Array as="points">
              <mxPoint x="630" y="890" />
            </Array>
            <mxPoint x="887.9050000000002" y="508.79999999999995" as="targetPoint" />
          </mxGeometry>
        </mxCell>
        <mxCell id="jVKTxxuh7pFr3yUxkHU7-7" style="edgeStyle=none;shape=connector;rounded=0;orthogonalLoop=1;jettySize=auto;html=1;entryX=0.361;entryY=0.94;entryDx=0;entryDy=0;entryPerimeter=0;strokeColor=#FF3333;align=center;verticalAlign=middle;fontFamily=Helvetica;fontSize=11;fontColor=default;labelBackgroundColor=none;endArrow=none;" edge="1" parent="1">
          <mxGeometry relative="1" as="geometry">
            <Array as="points">
              <mxPoint x="625" y="2029" />
            </Array>
            <mxPoint x="882.9050000000007" y="1647.7999999999993" as="targetPoint" />
          </mxGeometry>
        </mxCell>
        <mxCell id="jVKTxxuh7pFr3yUxkHU7-8" style="edgeStyle=none;shape=connector;rounded=0;orthogonalLoop=1;jettySize=auto;html=1;entryX=0.361;entryY=0.94;entryDx=0;entryDy=0;entryPerimeter=0;strokeColor=#FF3333;align=center;verticalAlign=middle;fontFamily=Helvetica;fontSize=11;fontColor=default;labelBackgroundColor=none;endArrow=none;" edge="1" parent="1">
          <mxGeometry relative="1" as="geometry">
            <Array as="points">
              <mxPoint x="2758" y="5130" />
            </Array>
            <mxPoint x="3015.905" y="4748.799999999999" as="targetPoint" />
          </mxGeometry>
        </mxCell>
        <mxCell id="jVKTxxuh7pFr3yUxkHU7-9" style="edgeStyle=none;shape=connector;rounded=0;orthogonalLoop=1;jettySize=auto;html=1;entryX=0.361;entryY=0.94;entryDx=0;entryDy=0;entryPerimeter=0;strokeColor=#FF3333;align=center;verticalAlign=middle;fontFamily=Helvetica;fontSize=11;fontColor=default;labelBackgroundColor=none;endArrow=none;" edge="1" parent="1">
          <mxGeometry relative="1" as="geometry">
            <Array as="points">
              <mxPoint x="898" y="1820" />
            </Array>
            <mxPoint x="1155.9050000000002" y="1438.8" as="targetPoint" />
          </mxGeometry>
        </mxCell>
        <mxCell id="jVKTxxuh7pFr3yUxkHU7-10" style="edgeStyle=none;shape=connector;rounded=0;orthogonalLoop=1;jettySize=auto;html=1;entryX=0.361;entryY=0.94;entryDx=0;entryDy=0;entryPerimeter=0;strokeColor=#FF3333;align=center;verticalAlign=middle;fontFamily=Helvetica;fontSize=11;fontColor=default;labelBackgroundColor=none;endArrow=none;" edge="1" parent="1">
          <mxGeometry relative="1" as="geometry">
            <Array as="points">
              <mxPoint x="618" y="940" />
            </Array>
            <mxPoint x="875.9050000000002" y="558.8" as="targetPoint" />
          </mxGeometry>
        </mxCell>
        <mxCell id="jVKTxxuh7pFr3yUxkHU7-11" style="edgeStyle=none;shape=connector;rounded=0;orthogonalLoop=1;jettySize=auto;html=1;entryX=0.361;entryY=0.94;entryDx=0;entryDy=0;entryPerimeter=0;strokeColor=#FF3333;align=center;verticalAlign=middle;fontFamily=Helvetica;fontSize=11;fontColor=default;labelBackgroundColor=none;endArrow=none;" edge="1" parent="1">
          <mxGeometry relative="1" as="geometry">
            <Array as="points">
              <mxPoint x="360" y="960" />
            </Array>
            <mxPoint x="617.9050000000002" y="578.8" as="targetPoint" />
          </mxGeometry>
        </mxCell>
        <mxCell id="jVKTxxuh7pFr3yUxkHU7-12" style="edgeStyle=none;shape=connector;rounded=0;orthogonalLoop=1;jettySize=auto;html=1;entryX=0.361;entryY=0.94;entryDx=0;entryDy=0;entryPerimeter=0;strokeColor=#FF3333;align=center;verticalAlign=middle;fontFamily=Helvetica;fontSize=11;fontColor=default;labelBackgroundColor=none;endArrow=none;" edge="1" parent="1">
          <mxGeometry relative="1" as="geometry">
            <Array as="points">
              <mxPoint x="355" y="2099" />
            </Array>
            <mxPoint x="612.9050000000007" y="1717.7999999999993" as="targetPoint" />
          </mxGeometry>
        </mxCell>
        <mxCell id="jVKTxxuh7pFr3yUxkHU7-13" style="edgeStyle=none;shape=connector;rounded=0;orthogonalLoop=1;jettySize=auto;html=1;entryX=0.361;entryY=0.94;entryDx=0;entryDy=0;entryPerimeter=0;strokeColor=#FF3333;align=center;verticalAlign=middle;fontFamily=Helvetica;fontSize=11;fontColor=default;labelBackgroundColor=none;endArrow=none;" edge="1" parent="1">
          <mxGeometry relative="1" as="geometry">
            <Array as="points">
              <mxPoint x="2488" y="5200" />
            </Array>
            <mxPoint x="2745.905" y="4818.799999999999" as="targetPoint" />
          </mxGeometry>
        </mxCell>
        <mxCell id="jVKTxxuh7pFr3yUxkHU7-14" style="edgeStyle=none;shape=connector;rounded=0;orthogonalLoop=1;jettySize=auto;html=1;entryX=0.361;entryY=0.94;entryDx=0;entryDy=0;entryPerimeter=0;strokeColor=#FF3333;align=center;verticalAlign=middle;fontFamily=Helvetica;fontSize=11;fontColor=default;labelBackgroundColor=none;endArrow=none;" edge="1" parent="1">
          <mxGeometry relative="1" as="geometry">
            <Array as="points">
              <mxPoint x="628" y="1890" />
            </Array>
            <mxPoint x="885.9050000000002" y="1508.8" as="targetPoint" />
          </mxGeometry>
        </mxCell>
        <mxCell id="jVKTxxuh7pFr3yUxkHU7-15" style="edgeStyle=none;shape=connector;rounded=0;orthogonalLoop=1;jettySize=auto;html=1;entryX=0.361;entryY=0.94;entryDx=0;entryDy=0;entryPerimeter=0;strokeColor=#FF3333;align=center;verticalAlign=middle;fontFamily=Helvetica;fontSize=11;fontColor=default;labelBackgroundColor=none;endArrow=none;" edge="1" parent="1">
          <mxGeometry relative="1" as="geometry">
            <Array as="points">
              <mxPoint x="348" y="1010" />
            </Array>
            <mxPoint x="605.9050000000002" y="628.8" as="targetPoint" />
          </mxGeometry>
        </mxCell>
        <mxCell id="jVKTxxuh7pFr3yUxkHU7-16" style="edgeStyle=none;shape=connector;rounded=0;orthogonalLoop=1;jettySize=auto;html=1;entryX=0.361;entryY=0.94;entryDx=0;entryDy=0;entryPerimeter=0;strokeColor=#FF3333;align=center;verticalAlign=middle;fontFamily=Helvetica;fontSize=11;fontColor=default;labelBackgroundColor=none;endArrow=none;" edge="1" parent="1">
          <mxGeometry relative="1" as="geometry">
            <Array as="points">
              <mxPoint x="1498" y="3230" />
            </Array>
            <mxPoint x="1755.9050000000002" y="2848.8" as="targetPoint" />
          </mxGeometry>
        </mxCell>
        <mxCell id="jVKTxxuh7pFr3yUxkHU7-17" style="edgeStyle=none;shape=connector;rounded=0;orthogonalLoop=1;jettySize=auto;html=1;entryX=0.361;entryY=0.94;entryDx=0;entryDy=0;entryPerimeter=0;strokeColor=#FF3333;align=center;verticalAlign=middle;fontFamily=Helvetica;fontSize=11;fontColor=default;labelBackgroundColor=none;endArrow=none;" edge="1" parent="1">
          <mxGeometry relative="1" as="geometry">
            <Array as="points">
              <mxPoint x="910" y="2675" />
            </Array>
            <mxPoint x="1167.9050000000002" y="2293.8" as="targetPoint" />
          </mxGeometry>
        </mxCell>
        <mxCell id="jVKTxxuh7pFr3yUxkHU7-18" style="edgeStyle=none;shape=connector;rounded=0;orthogonalLoop=1;jettySize=auto;html=1;entryX=0.361;entryY=0.94;entryDx=0;entryDy=0;entryPerimeter=0;strokeColor=#FF3333;align=center;verticalAlign=middle;fontFamily=Helvetica;fontSize=11;fontColor=default;labelBackgroundColor=none;endArrow=none;" edge="1" parent="1">
          <mxGeometry relative="1" as="geometry">
            <Array as="points">
              <mxPoint x="905" y="3814" />
            </Array>
            <mxPoint x="1162.9050000000007" y="3432.7999999999993" as="targetPoint" />
          </mxGeometry>
        </mxCell>
        <mxCell id="jVKTxxuh7pFr3yUxkHU7-19" style="edgeStyle=none;shape=connector;rounded=0;orthogonalLoop=1;jettySize=auto;html=1;entryX=0.361;entryY=0.94;entryDx=0;entryDy=0;entryPerimeter=0;strokeColor=#FF3333;align=center;verticalAlign=middle;fontFamily=Helvetica;fontSize=11;fontColor=default;labelBackgroundColor=none;endArrow=none;" edge="1" parent="1">
          <mxGeometry relative="1" as="geometry">
            <Array as="points">
              <mxPoint x="3038" y="6915" />
            </Array>
            <mxPoint x="3295.905" y="6533.799999999999" as="targetPoint" />
          </mxGeometry>
        </mxCell>
        <mxCell id="jVKTxxuh7pFr3yUxkHU7-20" style="edgeStyle=none;shape=connector;rounded=0;orthogonalLoop=1;jettySize=auto;html=1;entryX=0.361;entryY=0.94;entryDx=0;entryDy=0;entryPerimeter=0;strokeColor=#FF3333;align=center;verticalAlign=middle;fontFamily=Helvetica;fontSize=11;fontColor=default;labelBackgroundColor=none;endArrow=none;" edge="1" parent="1">
          <mxGeometry relative="1" as="geometry">
            <Array as="points">
              <mxPoint x="1178" y="3605" />
            </Array>
            <mxPoint x="1435.9050000000002" y="3223.8" as="targetPoint" />
          </mxGeometry>
        </mxCell>
        <mxCell id="jVKTxxuh7pFr3yUxkHU7-21" style="edgeStyle=none;shape=connector;rounded=0;orthogonalLoop=1;jettySize=auto;html=1;entryX=0.361;entryY=0.94;entryDx=0;entryDy=0;entryPerimeter=0;strokeColor=#FF3333;align=center;verticalAlign=middle;fontFamily=Helvetica;fontSize=11;fontColor=default;labelBackgroundColor=none;endArrow=none;" edge="1" parent="1">
          <mxGeometry relative="1" as="geometry">
            <Array as="points">
              <mxPoint x="898" y="2725" />
            </Array>
            <mxPoint x="1155.9050000000002" y="2343.8" as="targetPoint" />
          </mxGeometry>
        </mxCell>
        <mxCell id="jVKTxxuh7pFr3yUxkHU7-22" style="edgeStyle=none;shape=connector;rounded=0;orthogonalLoop=1;jettySize=auto;html=1;entryX=0.361;entryY=0.94;entryDx=0;entryDy=0;entryPerimeter=0;strokeColor=#FF3333;align=center;verticalAlign=middle;fontFamily=Helvetica;fontSize=11;fontColor=default;labelBackgroundColor=none;endArrow=none;" edge="1" parent="1">
          <mxGeometry relative="1" as="geometry">
            <Array as="points">
              <mxPoint x="1170" y="2585" />
            </Array>
            <mxPoint x="1427.9050000000002" y="2203.8" as="targetPoint" />
          </mxGeometry>
        </mxCell>
        <mxCell id="jVKTxxuh7pFr3yUxkHU7-23" style="edgeStyle=none;shape=connector;rounded=0;orthogonalLoop=1;jettySize=auto;html=1;entryX=0.361;entryY=0.94;entryDx=0;entryDy=0;entryPerimeter=0;strokeColor=#FF3333;align=center;verticalAlign=middle;fontFamily=Helvetica;fontSize=11;fontColor=default;labelBackgroundColor=none;endArrow=none;" edge="1" parent="1">
          <mxGeometry relative="1" as="geometry">
            <Array as="points">
              <mxPoint x="1165" y="3724" />
            </Array>
            <mxPoint x="1422.9050000000007" y="3342.7999999999993" as="targetPoint" />
          </mxGeometry>
        </mxCell>
        <mxCell id="jVKTxxuh7pFr3yUxkHU7-24" style="edgeStyle=none;shape=connector;rounded=0;orthogonalLoop=1;jettySize=auto;html=1;entryX=0.361;entryY=0.94;entryDx=0;entryDy=0;entryPerimeter=0;strokeColor=#FF3333;align=center;verticalAlign=middle;fontFamily=Helvetica;fontSize=11;fontColor=default;labelBackgroundColor=none;endArrow=none;" edge="1" parent="1">
          <mxGeometry relative="1" as="geometry">
            <Array as="points">
              <mxPoint x="3298" y="6825" />
            </Array>
            <mxPoint x="3555.905" y="6443.799999999999" as="targetPoint" />
          </mxGeometry>
        </mxCell>
        <mxCell id="jVKTxxuh7pFr3yUxkHU7-25" style="edgeStyle=none;shape=connector;rounded=0;orthogonalLoop=1;jettySize=auto;html=1;entryX=0.361;entryY=0.94;entryDx=0;entryDy=0;entryPerimeter=0;strokeColor=#FF3333;align=center;verticalAlign=middle;fontFamily=Helvetica;fontSize=11;fontColor=default;labelBackgroundColor=none;endArrow=none;" edge="1" parent="1">
          <mxGeometry relative="1" as="geometry">
            <Array as="points">
              <mxPoint x="1438" y="3515" />
            </Array>
            <mxPoint x="1695.9050000000002" y="3133.8" as="targetPoint" />
          </mxGeometry>
        </mxCell>
        <mxCell id="jVKTxxuh7pFr3yUxkHU7-26" style="edgeStyle=none;shape=connector;rounded=0;orthogonalLoop=1;jettySize=auto;html=1;entryX=0.361;entryY=0.94;entryDx=0;entryDy=0;entryPerimeter=0;strokeColor=#FF3333;align=center;verticalAlign=middle;fontFamily=Helvetica;fontSize=11;fontColor=default;labelBackgroundColor=none;endArrow=none;" edge="1" parent="1">
          <mxGeometry relative="1" as="geometry">
            <Array as="points">
              <mxPoint x="1158" y="2635" />
            </Array>
            <mxPoint x="1415.9050000000002" y="2253.8" as="targetPoint" />
          </mxGeometry>
        </mxCell>
        <mxCell id="jVKTxxuh7pFr3yUxkHU7-27" style="edgeStyle=none;shape=connector;rounded=0;orthogonalLoop=1;jettySize=auto;html=1;entryX=0.361;entryY=0.94;entryDx=0;entryDy=0;entryPerimeter=0;strokeColor=#FF3333;align=center;verticalAlign=middle;fontFamily=Helvetica;fontSize=11;fontColor=default;labelBackgroundColor=none;endArrow=none;" edge="1" parent="1">
          <mxGeometry relative="1" as="geometry">
            <Array as="points">
              <mxPoint x="610" y="1325" />
            </Array>
            <mxPoint x="867.9050000000002" y="943.8" as="targetPoint" />
          </mxGeometry>
        </mxCell>
        <mxCell id="jVKTxxuh7pFr3yUxkHU7-28" style="edgeStyle=none;shape=connector;rounded=0;orthogonalLoop=1;jettySize=auto;html=1;entryX=0.361;entryY=0.94;entryDx=0;entryDy=0;entryPerimeter=0;strokeColor=#FF3333;align=center;verticalAlign=middle;fontFamily=Helvetica;fontSize=11;fontColor=default;labelBackgroundColor=none;endArrow=none;" edge="1" parent="1">
          <mxGeometry relative="1" as="geometry">
            <Array as="points">
              <mxPoint x="605" y="2464" />
            </Array>
            <mxPoint x="862.9050000000007" y="2082.7999999999993" as="targetPoint" />
          </mxGeometry>
        </mxCell>
        <mxCell id="jVKTxxuh7pFr3yUxkHU7-29" style="edgeStyle=none;shape=connector;rounded=0;orthogonalLoop=1;jettySize=auto;html=1;entryX=0.361;entryY=0.94;entryDx=0;entryDy=0;entryPerimeter=0;strokeColor=#FF3333;align=center;verticalAlign=middle;fontFamily=Helvetica;fontSize=11;fontColor=default;labelBackgroundColor=none;endArrow=none;" edge="1" parent="1">
          <mxGeometry relative="1" as="geometry">
            <Array as="points">
              <mxPoint x="2738" y="5565" />
            </Array>
            <mxPoint x="2995.905" y="5183.799999999999" as="targetPoint" />
          </mxGeometry>
        </mxCell>
        <mxCell id="jVKTxxuh7pFr3yUxkHU7-30" style="edgeStyle=none;shape=connector;rounded=0;orthogonalLoop=1;jettySize=auto;html=1;entryX=0.361;entryY=0.94;entryDx=0;entryDy=0;entryPerimeter=0;strokeColor=#FF3333;align=center;verticalAlign=middle;fontFamily=Helvetica;fontSize=11;fontColor=default;labelBackgroundColor=none;endArrow=none;" edge="1" parent="1">
          <mxGeometry relative="1" as="geometry">
            <Array as="points">
              <mxPoint x="878" y="2255" />
            </Array>
            <mxPoint x="1135.9050000000002" y="1873.8" as="targetPoint" />
          </mxGeometry>
        </mxCell>
        <mxCell id="jVKTxxuh7pFr3yUxkHU7-31" style="edgeStyle=none;shape=connector;rounded=0;orthogonalLoop=1;jettySize=auto;html=1;entryX=0.361;entryY=0.94;entryDx=0;entryDy=0;entryPerimeter=0;strokeColor=#FF3333;align=center;verticalAlign=middle;fontFamily=Helvetica;fontSize=11;fontColor=default;labelBackgroundColor=none;endArrow=none;" edge="1" parent="1">
          <mxGeometry relative="1" as="geometry">
            <Array as="points">
              <mxPoint x="598" y="1375" />
            </Array>
            <mxPoint x="855.9050000000002" y="993.8" as="targetPoint" />
          </mxGeometry>
        </mxCell>
        <mxCell id="jVKTxxuh7pFr3yUxkHU7-32" style="edgeStyle=none;shape=connector;rounded=0;orthogonalLoop=1;jettySize=auto;html=1;entryX=0.361;entryY=0.94;entryDx=0;entryDy=0;entryPerimeter=0;strokeColor=#FF3333;align=center;verticalAlign=middle;fontFamily=Helvetica;fontSize=11;fontColor=default;labelBackgroundColor=none;endArrow=none;" edge="1" parent="1">
          <mxGeometry relative="1" as="geometry">
            <Array as="points">
              <mxPoint x="870" y="1235" />
            </Array>
            <mxPoint x="1127.9050000000002" y="853.8" as="targetPoint" />
          </mxGeometry>
        </mxCell>
        <mxCell id="jVKTxxuh7pFr3yUxkHU7-33" style="edgeStyle=none;shape=connector;rounded=0;orthogonalLoop=1;jettySize=auto;html=1;entryX=0.361;entryY=0.94;entryDx=0;entryDy=0;entryPerimeter=0;strokeColor=#FF3333;align=center;verticalAlign=middle;fontFamily=Helvetica;fontSize=11;fontColor=default;labelBackgroundColor=none;endArrow=none;" edge="1" parent="1">
          <mxGeometry relative="1" as="geometry">
            <Array as="points">
              <mxPoint x="865" y="2374" />
            </Array>
            <mxPoint x="1122.9050000000007" y="1992.7999999999993" as="targetPoint" />
          </mxGeometry>
        </mxCell>
        <mxCell id="jVKTxxuh7pFr3yUxkHU7-34" style="edgeStyle=none;shape=connector;rounded=0;orthogonalLoop=1;jettySize=auto;html=1;entryX=0.361;entryY=0.94;entryDx=0;entryDy=0;entryPerimeter=0;strokeColor=#FF3333;align=center;verticalAlign=middle;fontFamily=Helvetica;fontSize=11;fontColor=default;labelBackgroundColor=none;endArrow=none;" edge="1" parent="1">
          <mxGeometry relative="1" as="geometry">
            <Array as="points">
              <mxPoint x="2998" y="5475" />
            </Array>
            <mxPoint x="3255.905" y="5093.799999999999" as="targetPoint" />
          </mxGeometry>
        </mxCell>
        <mxCell id="jVKTxxuh7pFr3yUxkHU7-35" style="edgeStyle=none;shape=connector;rounded=0;orthogonalLoop=1;jettySize=auto;html=1;entryX=0.361;entryY=0.94;entryDx=0;entryDy=0;entryPerimeter=0;strokeColor=#FF3333;align=center;verticalAlign=middle;fontFamily=Helvetica;fontSize=11;fontColor=default;labelBackgroundColor=none;endArrow=none;" edge="1" parent="1">
          <mxGeometry relative="1" as="geometry">
            <Array as="points">
              <mxPoint x="1138" y="2165" />
            </Array>
            <mxPoint x="1395.9050000000002" y="1783.8" as="targetPoint" />
          </mxGeometry>
        </mxCell>
        <mxCell id="jVKTxxuh7pFr3yUxkHU7-36" style="edgeStyle=none;shape=connector;rounded=0;orthogonalLoop=1;jettySize=auto;html=1;entryX=0.361;entryY=0.94;entryDx=0;entryDy=0;entryPerimeter=0;strokeColor=#FF3333;align=center;verticalAlign=middle;fontFamily=Helvetica;fontSize=11;fontColor=default;labelBackgroundColor=none;endArrow=none;" edge="1" parent="1">
          <mxGeometry relative="1" as="geometry">
            <Array as="points">
              <mxPoint x="858" y="1285" />
            </Array>
            <mxPoint x="1115.9050000000002" y="903.8" as="targetPoint" />
          </mxGeometry>
        </mxCell>
        <mxCell id="jVKTxxuh7pFr3yUxkHU7-37" style="edgeStyle=none;shape=connector;rounded=0;orthogonalLoop=1;jettySize=auto;html=1;entryX=0.361;entryY=0.94;entryDx=0;entryDy=0;entryPerimeter=0;strokeColor=#FF3333;align=center;verticalAlign=middle;fontFamily=Helvetica;fontSize=11;fontColor=default;labelBackgroundColor=none;endArrow=none;" edge="1" parent="1">
          <mxGeometry relative="1" as="geometry">
            <Array as="points">
              <mxPoint x="1040" y="1180" />
            </Array>
            <mxPoint x="1297.9050000000002" y="798.8" as="targetPoint" />
          </mxGeometry>
        </mxCell>
        <mxCell id="jVKTxxuh7pFr3yUxkHU7-38" style="edgeStyle=none;shape=connector;rounded=0;orthogonalLoop=1;jettySize=auto;html=1;entryX=0.361;entryY=0.94;entryDx=0;entryDy=0;entryPerimeter=0;strokeColor=#FF3333;align=center;verticalAlign=middle;fontFamily=Helvetica;fontSize=11;fontColor=default;labelBackgroundColor=none;endArrow=none;" edge="1" parent="1">
          <mxGeometry relative="1" as="geometry">
            <Array as="points">
              <mxPoint x="1035" y="2319" />
            </Array>
            <mxPoint x="1292.9050000000007" y="1937.7999999999993" as="targetPoint" />
          </mxGeometry>
        </mxCell>
        <mxCell id="jVKTxxuh7pFr3yUxkHU7-39" style="edgeStyle=none;shape=connector;rounded=0;orthogonalLoop=1;jettySize=auto;html=1;entryX=0.361;entryY=0.94;entryDx=0;entryDy=0;entryPerimeter=0;strokeColor=#FF3333;align=center;verticalAlign=middle;fontFamily=Helvetica;fontSize=11;fontColor=default;labelBackgroundColor=none;endArrow=none;" edge="1" parent="1">
          <mxGeometry relative="1" as="geometry">
            <Array as="points">
              <mxPoint x="3168" y="5420" />
            </Array>
            <mxPoint x="3425.905" y="5038.799999999999" as="targetPoint" />
          </mxGeometry>
        </mxCell>
        <mxCell id="jVKTxxuh7pFr3yUxkHU7-40" style="edgeStyle=none;shape=connector;rounded=0;orthogonalLoop=1;jettySize=auto;html=1;entryX=0.361;entryY=0.94;entryDx=0;entryDy=0;entryPerimeter=0;strokeColor=#FF3333;align=center;verticalAlign=middle;fontFamily=Helvetica;fontSize=11;fontColor=default;labelBackgroundColor=none;endArrow=none;" edge="1" parent="1">
          <mxGeometry relative="1" as="geometry">
            <Array as="points">
              <mxPoint x="1308" y="2110" />
            </Array>
            <mxPoint x="1565.9050000000002" y="1728.8000000000002" as="targetPoint" />
          </mxGeometry>
        </mxCell>
        <mxCell id="jVKTxxuh7pFr3yUxkHU7-41" style="edgeStyle=none;shape=connector;rounded=0;orthogonalLoop=1;jettySize=auto;html=1;entryX=0.361;entryY=0.94;entryDx=0;entryDy=0;entryPerimeter=0;strokeColor=#FF3333;align=center;verticalAlign=middle;fontFamily=Helvetica;fontSize=11;fontColor=default;labelBackgroundColor=none;endArrow=none;" edge="1" parent="1">
          <mxGeometry relative="1" as="geometry">
            <Array as="points">
              <mxPoint x="1028" y="1230" />
            </Array>
            <mxPoint x="1285.9050000000002" y="848.8" as="targetPoint" />
          </mxGeometry>
        </mxCell>
        <mxCell id="jVKTxxuh7pFr3yUxkHU7-42" style="edgeStyle=none;shape=connector;rounded=0;orthogonalLoop=1;jettySize=auto;html=1;entryX=0.361;entryY=0.94;entryDx=0;entryDy=0;entryPerimeter=0;strokeColor=#FF3333;align=center;verticalAlign=middle;fontFamily=Helvetica;fontSize=11;fontColor=default;labelBackgroundColor=none;endArrow=none;" edge="1" parent="1">
          <mxGeometry relative="1" as="geometry">
            <Array as="points">
              <mxPoint x="1300" y="1090" />
            </Array>
            <mxPoint x="1557.9050000000002" y="708.8" as="targetPoint" />
          </mxGeometry>
        </mxCell>
        <mxCell id="jVKTxxuh7pFr3yUxkHU7-43" style="edgeStyle=none;shape=connector;rounded=0;orthogonalLoop=1;jettySize=auto;html=1;entryX=0.361;entryY=0.94;entryDx=0;entryDy=0;entryPerimeter=0;strokeColor=#FF3333;align=center;verticalAlign=middle;fontFamily=Helvetica;fontSize=11;fontColor=default;labelBackgroundColor=none;endArrow=none;" edge="1" parent="1">
          <mxGeometry relative="1" as="geometry">
            <Array as="points">
              <mxPoint x="1295" y="2229" />
            </Array>
            <mxPoint x="1552.9050000000007" y="1847.7999999999993" as="targetPoint" />
          </mxGeometry>
        </mxCell>
        <mxCell id="jVKTxxuh7pFr3yUxkHU7-44" style="edgeStyle=none;shape=connector;rounded=0;orthogonalLoop=1;jettySize=auto;html=1;entryX=0.361;entryY=0.94;entryDx=0;entryDy=0;entryPerimeter=0;strokeColor=#FF3333;align=center;verticalAlign=middle;fontFamily=Helvetica;fontSize=11;fontColor=default;labelBackgroundColor=none;endArrow=none;" edge="1" parent="1">
          <mxGeometry relative="1" as="geometry">
            <Array as="points">
              <mxPoint x="3428" y="5330" />
            </Array>
            <mxPoint x="3685.9050000000007" y="4948.799999999999" as="targetPoint" />
          </mxGeometry>
        </mxCell>
        <mxCell id="jVKTxxuh7pFr3yUxkHU7-45" style="edgeStyle=none;shape=connector;rounded=0;orthogonalLoop=1;jettySize=auto;html=1;entryX=0.361;entryY=0.94;entryDx=0;entryDy=0;entryPerimeter=0;strokeColor=#FF3333;align=center;verticalAlign=middle;fontFamily=Helvetica;fontSize=11;fontColor=default;labelBackgroundColor=none;endArrow=none;" edge="1" parent="1">
          <mxGeometry relative="1" as="geometry">
            <Array as="points">
              <mxPoint x="1568" y="2020" />
            </Array>
            <mxPoint x="1825.9050000000002" y="1638.8000000000002" as="targetPoint" />
          </mxGeometry>
        </mxCell>
        <mxCell id="jVKTxxuh7pFr3yUxkHU7-46" style="edgeStyle=none;shape=connector;rounded=0;orthogonalLoop=1;jettySize=auto;html=1;entryX=0.361;entryY=0.94;entryDx=0;entryDy=0;entryPerimeter=0;strokeColor=#FF3333;align=center;verticalAlign=middle;fontFamily=Helvetica;fontSize=11;fontColor=default;labelBackgroundColor=none;endArrow=none;" edge="1" parent="1">
          <mxGeometry relative="1" as="geometry">
            <Array as="points">
              <mxPoint x="1288" y="1140" />
            </Array>
            <mxPoint x="1545.9050000000002" y="758.8" as="targetPoint" />
          </mxGeometry>
        </mxCell>
        <mxCell id="jVKTxxuh7pFr3yUxkHU7-47" style="edgeStyle=none;shape=connector;rounded=0;orthogonalLoop=1;jettySize=auto;html=1;entryX=0.361;entryY=0.94;entryDx=0;entryDy=0;entryPerimeter=0;strokeColor=#FF3333;align=center;verticalAlign=middle;fontFamily=Helvetica;fontSize=11;fontColor=default;labelBackgroundColor=none;endArrow=none;" edge="1" parent="1">
          <mxGeometry relative="1" as="geometry">
            <Array as="points">
              <mxPoint x="1030" y="1160" />
            </Array>
            <mxPoint x="1287.9050000000002" y="778.8" as="targetPoint" />
          </mxGeometry>
        </mxCell>
        <mxCell id="jVKTxxuh7pFr3yUxkHU7-48" style="edgeStyle=none;shape=connector;rounded=0;orthogonalLoop=1;jettySize=auto;html=1;entryX=0.361;entryY=0.94;entryDx=0;entryDy=0;entryPerimeter=0;strokeColor=#FF3333;align=center;verticalAlign=middle;fontFamily=Helvetica;fontSize=11;fontColor=default;labelBackgroundColor=none;endArrow=none;" edge="1" parent="1">
          <mxGeometry relative="1" as="geometry">
            <Array as="points">
              <mxPoint x="1025" y="2299" />
            </Array>
            <mxPoint x="1282.9050000000007" y="1917.7999999999993" as="targetPoint" />
          </mxGeometry>
        </mxCell>
        <mxCell id="jVKTxxuh7pFr3yUxkHU7-49" style="edgeStyle=none;shape=connector;rounded=0;orthogonalLoop=1;jettySize=auto;html=1;entryX=0.361;entryY=0.94;entryDx=0;entryDy=0;entryPerimeter=0;strokeColor=#FF3333;align=center;verticalAlign=middle;fontFamily=Helvetica;fontSize=11;fontColor=default;labelBackgroundColor=none;endArrow=none;" edge="1" parent="1">
          <mxGeometry relative="1" as="geometry">
            <Array as="points">
              <mxPoint x="3158" y="5400" />
            </Array>
            <mxPoint x="3415.905" y="5018.799999999999" as="targetPoint" />
          </mxGeometry>
        </mxCell>
        <mxCell id="jVKTxxuh7pFr3yUxkHU7-50" style="edgeStyle=none;shape=connector;rounded=0;orthogonalLoop=1;jettySize=auto;html=1;entryX=0.361;entryY=0.94;entryDx=0;entryDy=0;entryPerimeter=0;strokeColor=#FF3333;align=center;verticalAlign=middle;fontFamily=Helvetica;fontSize=11;fontColor=default;labelBackgroundColor=none;endArrow=none;" edge="1" parent="1">
          <mxGeometry relative="1" as="geometry">
            <Array as="points">
              <mxPoint x="1298" y="2090" />
            </Array>
            <mxPoint x="1555.9050000000002" y="1708.8000000000002" as="targetPoint" />
          </mxGeometry>
        </mxCell>
        <mxCell id="jVKTxxuh7pFr3yUxkHU7-51" style="edgeStyle=none;shape=connector;rounded=0;orthogonalLoop=1;jettySize=auto;html=1;entryX=0.361;entryY=0.94;entryDx=0;entryDy=0;entryPerimeter=0;strokeColor=#FF3333;align=center;verticalAlign=middle;fontFamily=Helvetica;fontSize=11;fontColor=default;labelBackgroundColor=none;endArrow=none;" edge="1" parent="1">
          <mxGeometry relative="1" as="geometry">
            <Array as="points">
              <mxPoint x="1018" y="1210" />
            </Array>
            <mxPoint x="1275.9050000000002" y="828.8" as="targetPoint" />
          </mxGeometry>
        </mxCell>
        <mxCell id="jVKTxxuh7pFr3yUxkHU7-52" style="edgeStyle=none;shape=connector;rounded=0;orthogonalLoop=1;jettySize=auto;html=1;entryX=0.361;entryY=0.94;entryDx=0;entryDy=0;entryPerimeter=0;strokeColor=#FF3333;align=center;verticalAlign=middle;fontFamily=Helvetica;fontSize=11;fontColor=default;labelBackgroundColor=none;endArrow=none;" edge="1" parent="1">
          <mxGeometry relative="1" as="geometry">
            <Array as="points">
              <mxPoint x="2168" y="3430" />
            </Array>
            <mxPoint x="2425.905" y="3048.8" as="targetPoint" />
          </mxGeometry>
        </mxCell>
        <mxCell id="jVKTxxuh7pFr3yUxkHU7-53" style="edgeStyle=none;shape=connector;rounded=0;orthogonalLoop=1;jettySize=auto;html=1;entryX=0.361;entryY=0.94;entryDx=0;entryDy=0;entryPerimeter=0;strokeColor=#FF3333;align=center;verticalAlign=middle;fontFamily=Helvetica;fontSize=11;fontColor=default;labelBackgroundColor=none;endArrow=none;" edge="1" parent="1">
          <mxGeometry relative="1" as="geometry">
            <Array as="points">
              <mxPoint x="1580" y="2875" />
            </Array>
            <mxPoint x="1837.9050000000002" y="2493.8" as="targetPoint" />
          </mxGeometry>
        </mxCell>
        <mxCell id="jVKTxxuh7pFr3yUxkHU7-54" style="edgeStyle=none;shape=connector;rounded=0;orthogonalLoop=1;jettySize=auto;html=1;entryX=0.361;entryY=0.94;entryDx=0;entryDy=0;entryPerimeter=0;strokeColor=#FF3333;align=center;verticalAlign=middle;fontFamily=Helvetica;fontSize=11;fontColor=default;labelBackgroundColor=none;endArrow=none;" edge="1" parent="1">
          <mxGeometry relative="1" as="geometry">
            <Array as="points">
              <mxPoint x="1575" y="4014" />
            </Array>
            <mxPoint x="1832.9050000000007" y="3632.7999999999993" as="targetPoint" />
          </mxGeometry>
        </mxCell>
        <mxCell id="jVKTxxuh7pFr3yUxkHU7-55" style="edgeStyle=none;shape=connector;rounded=0;orthogonalLoop=1;jettySize=auto;html=1;entryX=0.361;entryY=0.94;entryDx=0;entryDy=0;entryPerimeter=0;strokeColor=#FF3333;align=center;verticalAlign=middle;fontFamily=Helvetica;fontSize=11;fontColor=default;labelBackgroundColor=none;endArrow=none;" edge="1" parent="1">
          <mxGeometry relative="1" as="geometry">
            <Array as="points">
              <mxPoint x="3708" y="7115" />
            </Array>
            <mxPoint x="3965.9050000000007" y="6733.799999999999" as="targetPoint" />
          </mxGeometry>
        </mxCell>
        <mxCell id="jVKTxxuh7pFr3yUxkHU7-56" style="edgeStyle=none;shape=connector;rounded=0;orthogonalLoop=1;jettySize=auto;html=1;entryX=0.361;entryY=0.94;entryDx=0;entryDy=0;entryPerimeter=0;strokeColor=#FF3333;align=center;verticalAlign=middle;fontFamily=Helvetica;fontSize=11;fontColor=default;labelBackgroundColor=none;endArrow=none;" edge="1" parent="1">
          <mxGeometry relative="1" as="geometry">
            <Array as="points">
              <mxPoint x="1848" y="3805" />
            </Array>
            <mxPoint x="2105.905" y="3423.8" as="targetPoint" />
          </mxGeometry>
        </mxCell>
        <mxCell id="jVKTxxuh7pFr3yUxkHU7-57" style="edgeStyle=none;shape=connector;rounded=0;orthogonalLoop=1;jettySize=auto;html=1;entryX=0.361;entryY=0.94;entryDx=0;entryDy=0;entryPerimeter=0;strokeColor=#FF3333;align=center;verticalAlign=middle;fontFamily=Helvetica;fontSize=11;fontColor=default;labelBackgroundColor=none;endArrow=none;" edge="1" parent="1">
          <mxGeometry relative="1" as="geometry">
            <Array as="points">
              <mxPoint x="1568" y="2925" />
            </Array>
            <mxPoint x="1825.9050000000002" y="2543.8" as="targetPoint" />
          </mxGeometry>
        </mxCell>
        <mxCell id="jVKTxxuh7pFr3yUxkHU7-58" style="edgeStyle=none;shape=connector;rounded=0;orthogonalLoop=1;jettySize=auto;html=1;entryX=0.361;entryY=0.94;entryDx=0;entryDy=0;entryPerimeter=0;strokeColor=#FF3333;align=center;verticalAlign=middle;fontFamily=Helvetica;fontSize=11;fontColor=default;labelBackgroundColor=none;endArrow=none;" edge="1" parent="1">
          <mxGeometry relative="1" as="geometry">
            <Array as="points">
              <mxPoint x="1840" y="2785" />
            </Array>
            <mxPoint x="2097.905" y="2403.8" as="targetPoint" />
          </mxGeometry>
        </mxCell>
        <mxCell id="jVKTxxuh7pFr3yUxkHU7-59" style="edgeStyle=none;shape=connector;rounded=0;orthogonalLoop=1;jettySize=auto;html=1;entryX=0.361;entryY=0.94;entryDx=0;entryDy=0;entryPerimeter=0;strokeColor=#FF3333;align=center;verticalAlign=middle;fontFamily=Helvetica;fontSize=11;fontColor=default;labelBackgroundColor=none;endArrow=none;" edge="1" parent="1">
          <mxGeometry relative="1" as="geometry">
            <Array as="points">
              <mxPoint x="1835" y="3924" />
            </Array>
            <mxPoint x="2092.9050000000007" y="3542.7999999999993" as="targetPoint" />
          </mxGeometry>
        </mxCell>
        <mxCell id="jVKTxxuh7pFr3yUxkHU7-60" style="edgeStyle=none;shape=connector;rounded=0;orthogonalLoop=1;jettySize=auto;html=1;entryX=0.361;entryY=0.94;entryDx=0;entryDy=0;entryPerimeter=0;strokeColor=#FF3333;align=center;verticalAlign=middle;fontFamily=Helvetica;fontSize=11;fontColor=default;labelBackgroundColor=none;endArrow=none;" edge="1" parent="1">
          <mxGeometry relative="1" as="geometry">
            <Array as="points">
              <mxPoint x="3968" y="7025" />
            </Array>
            <mxPoint x="4225.905000000001" y="6643.799999999999" as="targetPoint" />
          </mxGeometry>
        </mxCell>
        <mxCell id="jVKTxxuh7pFr3yUxkHU7-61" style="edgeStyle=none;shape=connector;rounded=0;orthogonalLoop=1;jettySize=auto;html=1;entryX=0.361;entryY=0.94;entryDx=0;entryDy=0;entryPerimeter=0;strokeColor=#FF3333;align=center;verticalAlign=middle;fontFamily=Helvetica;fontSize=11;fontColor=default;labelBackgroundColor=none;endArrow=none;" edge="1" parent="1">
          <mxGeometry relative="1" as="geometry">
            <Array as="points">
              <mxPoint x="2108" y="3715" />
            </Array>
            <mxPoint x="2365.905" y="3333.8" as="targetPoint" />
          </mxGeometry>
        </mxCell>
        <mxCell id="jVKTxxuh7pFr3yUxkHU7-62" style="edgeStyle=none;shape=connector;rounded=0;orthogonalLoop=1;jettySize=auto;html=1;entryX=0.361;entryY=0.94;entryDx=0;entryDy=0;entryPerimeter=0;strokeColor=#FF3333;align=center;verticalAlign=middle;fontFamily=Helvetica;fontSize=11;fontColor=default;labelBackgroundColor=none;endArrow=none;" edge="1" parent="1">
          <mxGeometry relative="1" as="geometry">
            <Array as="points">
              <mxPoint x="1828" y="2835" />
            </Array>
            <mxPoint x="2085.905" y="2453.8" as="targetPoint" />
          </mxGeometry>
        </mxCell>
        <mxCell id="jVKTxxuh7pFr3yUxkHU7-63" style="edgeStyle=none;shape=connector;rounded=0;orthogonalLoop=1;jettySize=auto;html=1;entryX=0.361;entryY=0.94;entryDx=0;entryDy=0;entryPerimeter=0;strokeColor=#FF3333;align=center;verticalAlign=middle;fontFamily=Helvetica;fontSize=11;fontColor=default;labelBackgroundColor=none;endArrow=none;" edge="1" parent="1">
          <mxGeometry relative="1" as="geometry">
            <Array as="points">
              <mxPoint x="1280" y="1525" />
            </Array>
            <mxPoint x="1537.9050000000002" y="1143.8" as="targetPoint" />
          </mxGeometry>
        </mxCell>
        <mxCell id="jVKTxxuh7pFr3yUxkHU7-64" style="edgeStyle=none;shape=connector;rounded=0;orthogonalLoop=1;jettySize=auto;html=1;entryX=0.361;entryY=0.94;entryDx=0;entryDy=0;entryPerimeter=0;strokeColor=#FF3333;align=center;verticalAlign=middle;fontFamily=Helvetica;fontSize=11;fontColor=default;labelBackgroundColor=none;endArrow=none;" edge="1" parent="1">
          <mxGeometry relative="1" as="geometry">
            <Array as="points">
              <mxPoint x="1275" y="2664" />
            </Array>
            <mxPoint x="1532.9050000000007" y="2282.7999999999993" as="targetPoint" />
          </mxGeometry>
        </mxCell>
        <mxCell id="jVKTxxuh7pFr3yUxkHU7-65" style="edgeStyle=none;shape=connector;rounded=0;orthogonalLoop=1;jettySize=auto;html=1;entryX=0.361;entryY=0.94;entryDx=0;entryDy=0;entryPerimeter=0;strokeColor=#FF3333;align=center;verticalAlign=middle;fontFamily=Helvetica;fontSize=11;fontColor=default;labelBackgroundColor=none;endArrow=none;" edge="1" parent="1">
          <mxGeometry relative="1" as="geometry">
            <Array as="points">
              <mxPoint x="3408" y="5765" />
            </Array>
            <mxPoint x="3665.9050000000007" y="5383.799999999999" as="targetPoint" />
          </mxGeometry>
        </mxCell>
        <mxCell id="jVKTxxuh7pFr3yUxkHU7-66" style="edgeStyle=none;shape=connector;rounded=0;orthogonalLoop=1;jettySize=auto;html=1;entryX=0.361;entryY=0.94;entryDx=0;entryDy=0;entryPerimeter=0;strokeColor=#FF3333;align=center;verticalAlign=middle;fontFamily=Helvetica;fontSize=11;fontColor=default;labelBackgroundColor=none;endArrow=none;" edge="1" parent="1">
          <mxGeometry relative="1" as="geometry">
            <Array as="points">
              <mxPoint x="1548" y="2455" />
            </Array>
            <mxPoint x="1805.9050000000002" y="2073.8" as="targetPoint" />
          </mxGeometry>
        </mxCell>
        <mxCell id="jVKTxxuh7pFr3yUxkHU7-67" style="edgeStyle=none;shape=connector;rounded=0;orthogonalLoop=1;jettySize=auto;html=1;entryX=0.361;entryY=0.94;entryDx=0;entryDy=0;entryPerimeter=0;strokeColor=#FF3333;align=center;verticalAlign=middle;fontFamily=Helvetica;fontSize=11;fontColor=default;labelBackgroundColor=none;endArrow=none;" edge="1" parent="1">
          <mxGeometry relative="1" as="geometry">
            <Array as="points">
              <mxPoint x="1268" y="1575" />
            </Array>
            <mxPoint x="1525.9050000000002" y="1193.8" as="targetPoint" />
          </mxGeometry>
        </mxCell>
        <mxCell id="jVKTxxuh7pFr3yUxkHU7-68" style="edgeStyle=none;shape=connector;rounded=0;orthogonalLoop=1;jettySize=auto;html=1;entryX=0.361;entryY=0.94;entryDx=0;entryDy=0;entryPerimeter=0;strokeColor=#FF3333;align=center;verticalAlign=middle;fontFamily=Helvetica;fontSize=11;fontColor=default;labelBackgroundColor=none;endArrow=none;" edge="1" parent="1">
          <mxGeometry relative="1" as="geometry">
            <Array as="points">
              <mxPoint x="1540" y="1435" />
            </Array>
            <mxPoint x="1797.9050000000002" y="1053.8" as="targetPoint" />
          </mxGeometry>
        </mxCell>
        <mxCell id="jVKTxxuh7pFr3yUxkHU7-69" style="edgeStyle=none;shape=connector;rounded=0;orthogonalLoop=1;jettySize=auto;html=1;entryX=0.361;entryY=0.94;entryDx=0;entryDy=0;entryPerimeter=0;strokeColor=#FF3333;align=center;verticalAlign=middle;fontFamily=Helvetica;fontSize=11;fontColor=default;labelBackgroundColor=none;endArrow=none;" edge="1" parent="1">
          <mxGeometry relative="1" as="geometry">
            <Array as="points">
              <mxPoint x="1535" y="2574" />
            </Array>
            <mxPoint x="1792.9050000000007" y="2192.7999999999993" as="targetPoint" />
          </mxGeometry>
        </mxCell>
        <mxCell id="jVKTxxuh7pFr3yUxkHU7-70" style="edgeStyle=none;shape=connector;rounded=0;orthogonalLoop=1;jettySize=auto;html=1;entryX=0.361;entryY=0.94;entryDx=0;entryDy=0;entryPerimeter=0;strokeColor=#FF3333;align=center;verticalAlign=middle;fontFamily=Helvetica;fontSize=11;fontColor=default;labelBackgroundColor=none;endArrow=none;" edge="1" parent="1">
          <mxGeometry relative="1" as="geometry">
            <Array as="points">
              <mxPoint x="3668" y="5675" />
            </Array>
            <mxPoint x="3925.9050000000007" y="5293.799999999999" as="targetPoint" />
          </mxGeometry>
        </mxCell>
        <mxCell id="jVKTxxuh7pFr3yUxkHU7-71" style="edgeStyle=none;shape=connector;rounded=0;orthogonalLoop=1;jettySize=auto;html=1;entryX=0.361;entryY=0.94;entryDx=0;entryDy=0;entryPerimeter=0;strokeColor=#FF3333;align=center;verticalAlign=middle;fontFamily=Helvetica;fontSize=11;fontColor=default;labelBackgroundColor=none;endArrow=none;" edge="1" parent="1">
          <mxGeometry relative="1" as="geometry">
            <Array as="points">
              <mxPoint x="1808" y="2365" />
            </Array>
            <mxPoint x="2065.905" y="1983.8000000000002" as="targetPoint" />
          </mxGeometry>
        </mxCell>
        <mxCell id="jVKTxxuh7pFr3yUxkHU7-72" style="edgeStyle=none;shape=connector;rounded=0;orthogonalLoop=1;jettySize=auto;html=1;entryX=0.361;entryY=0.94;entryDx=0;entryDy=0;entryPerimeter=0;strokeColor=#FF3333;align=center;verticalAlign=middle;fontFamily=Helvetica;fontSize=11;fontColor=default;labelBackgroundColor=none;endArrow=none;" edge="1" parent="1">
          <mxGeometry relative="1" as="geometry">
            <Array as="points">
              <mxPoint x="1528" y="1485" />
            </Array>
            <mxPoint x="1785.9050000000002" y="1103.8" as="targetPoint" />
          </mxGeometry>
        </mxCell>
        <mxCell id="jVKTxxuh7pFr3yUxkHU7-73" value="uni_student" style="swimlane;fontStyle=0;childLayout=stackLayout;horizontal=1;startSize=26;fillColor=none;horizontalStack=0;resizeParent=1;resizeParentMax=0;resizeLast=0;collapsible=1;marginBottom=0;whiteSpace=wrap;html=1;" vertex="1" parent="1">
          <mxGeometry x="970" y="90" width="140" height="70" as="geometry" />
        </mxCell>
        <mxCell id="jVKTxxuh7pFr3yUxkHU7-74" value="feature_selection_screen" style="swimlane;fontStyle=0;childLayout=stackLayout;horizontal=1;startSize=26;fillColor=none;horizontalStack=0;resizeParent=1;resizeParentMax=0;resizeLast=0;collapsible=1;marginBottom=0;whiteSpace=wrap;html=1;" vertex="1" parent="1">
          <mxGeometry x="660" y="295" width="140" height="70" as="geometry" />
        </mxCell>
        <mxCell id="jVKTxxuh7pFr3yUxkHU7-75" value="" style="endArrow=none;html=1;rounded=0;exitX=1;exitY=0.5;exitDx=0;exitDy=0;entryX=0;entryY=0.5;entryDx=0;entryDy=0;" edge="1" parent="1" source="jVKTxxuh7pFr3yUxkHU7-74" target="jVKTxxuh7pFr3yUxkHU7-80">
          <mxGeometry width="50" height="50" relative="1" as="geometry">
            <mxPoint x="810" y="330" as="sourcePoint" />
            <mxPoint x="890" y="355" as="targetPoint" />
          </mxGeometry>
        </mxCell>
        <mxCell id="jVKTxxuh7pFr3yUxkHU7-76" style="edgeStyle=none;shape=connector;rounded=0;orthogonalLoop=1;jettySize=auto;html=1;entryX=0;entryY=0.5;entryDx=0;entryDy=0;strokeColor=default;align=center;verticalAlign=middle;fontFamily=Helvetica;fontSize=11;fontColor=default;labelBackgroundColor=default;endArrow=none;" edge="1" parent="1" source="jVKTxxuh7pFr3yUxkHU7-78" target="jVKTxxuh7pFr3yUxkHU7-74">
          <mxGeometry relative="1" as="geometry" />
        </mxCell>
        <mxCell id="jVKTxxuh7pFr3yUxkHU7-77" style="edgeStyle=none;shape=connector;rounded=0;orthogonalLoop=1;jettySize=auto;html=1;entryX=1;entryY=0.5;entryDx=0;entryDy=0;strokeColor=default;align=center;verticalAlign=middle;fontFamily=Helvetica;fontSize=11;fontColor=default;labelBackgroundColor=default;endArrow=none;exitX=0.75;exitY=1;exitDx=0;exitDy=0;" edge="1" parent="1" source="jVKTxxuh7pFr3yUxkHU7-78" target="jVKTxxuh7pFr3yUxkHU7-196">
          <mxGeometry relative="1" as="geometry" />
        </mxCell>
        <mxCell id="jVKTxxuh7pFr3yUxkHU7-78" value="&lt;div&gt;main_forum_screen&lt;/div&gt;" style="swimlane;fontStyle=0;childLayout=stackLayout;horizontal=1;startSize=26;fillColor=none;horizontalStack=0;resizeParent=1;resizeParentMax=0;resizeLast=0;collapsible=1;marginBottom=0;whiteSpace=wrap;html=1;" vertex="1" parent="1">
          <mxGeometry x="-350" y="494" width="140" height="70" as="geometry" />
        </mxCell>
        <mxCell id="jVKTxxuh7pFr3yUxkHU7-79" style="edgeStyle=none;shape=connector;rounded=0;orthogonalLoop=1;jettySize=auto;html=1;exitX=1;exitY=0.25;exitDx=0;exitDy=0;strokeColor=default;align=center;verticalAlign=middle;fontFamily=Helvetica;fontSize=11;fontColor=default;labelBackgroundColor=default;endArrow=none;entryX=0;entryY=0.75;entryDx=0;entryDy=0;" edge="1" parent="1" source="jVKTxxuh7pFr3yUxkHU7-80" target="jVKTxxuh7pFr3yUxkHU7-118">
          <mxGeometry relative="1" as="geometry">
            <mxPoint x="1110" y="210" as="targetPoint" />
          </mxGeometry>
        </mxCell>
        <mxCell id="jVKTxxuh7pFr3yUxkHU7-80" value="&lt;div&gt;starting_news_screen&lt;/div&gt;" style="swimlane;fontStyle=0;childLayout=stackLayout;horizontal=1;startSize=26;fillColor=none;horizontalStack=0;resizeParent=1;resizeParentMax=0;resizeLast=0;collapsible=1;marginBottom=0;whiteSpace=wrap;html=1;" vertex="1" parent="1">
          <mxGeometry x="890" y="295" width="140" height="70" as="geometry" />
        </mxCell>
        <mxCell id="jVKTxxuh7pFr3yUxkHU7-81" style="edgeStyle=none;shape=connector;rounded=0;orthogonalLoop=1;jettySize=auto;html=1;exitX=0;exitY=1;exitDx=0;exitDy=0;entryX=0;entryY=0.75;entryDx=0;entryDy=0;strokeColor=default;align=center;verticalAlign=middle;fontFamily=Helvetica;fontSize=11;fontColor=default;labelBackgroundColor=default;endArrow=none;" edge="1" parent="1" source="jVKTxxuh7pFr3yUxkHU7-80" target="jVKTxxuh7pFr3yUxkHU7-80">
          <mxGeometry relative="1" as="geometry" />
        </mxCell>
        <mxCell id="jVKTxxuh7pFr3yUxkHU7-82" style="edgeStyle=none;shape=connector;rounded=0;orthogonalLoop=1;jettySize=auto;html=1;strokeColor=default;align=center;verticalAlign=middle;fontFamily=Helvetica;fontSize=11;fontColor=default;labelBackgroundColor=default;endArrow=none;entryX=0.25;entryY=1;entryDx=0;entryDy=0;exitX=1;exitY=0.5;exitDx=0;exitDy=0;" edge="1" parent="1" source="jVKTxxuh7pFr3yUxkHU7-83" target="jVKTxxuh7pFr3yUxkHU7-80">
          <mxGeometry relative="1" as="geometry">
            <mxPoint x="815" y="435" as="sourcePoint" />
            <mxPoint x="910" y="370" as="targetPoint" />
          </mxGeometry>
        </mxCell>
        <mxCell id="jVKTxxuh7pFr3yUxkHU7-83" value="coffee_bar_screen" style="swimlane;fontStyle=0;childLayout=stackLayout;horizontal=1;startSize=26;fillColor=none;horizontalStack=0;resizeParent=1;resizeParentMax=0;resizeLast=0;collapsible=1;marginBottom=0;whiteSpace=wrap;html=1;" vertex="1" parent="1">
          <mxGeometry x="660" y="560" width="140" height="70" as="geometry" />
        </mxCell>
        <mxCell id="jVKTxxuh7pFr3yUxkHU7-84" value="uni_info_starting_screen" style="swimlane;fontStyle=0;childLayout=stackLayout;horizontal=1;startSize=26;fillColor=none;horizontalStack=0;resizeParent=1;resizeParentMax=0;resizeLast=0;collapsible=1;marginBottom=0;whiteSpace=wrap;html=1;" vertex="1" parent="1">
          <mxGeometry x="1110" y="750" width="140" height="70" as="geometry" />
        </mxCell>
        <mxCell id="jVKTxxuh7pFr3yUxkHU7-85" style="edgeStyle=none;shape=connector;rounded=0;orthogonalLoop=1;jettySize=auto;html=1;strokeColor=default;align=center;verticalAlign=middle;fontFamily=Helvetica;fontSize=11;fontColor=default;labelBackgroundColor=default;endArrow=none;entryX=0.5;entryY=1;entryDx=0;entryDy=0;" edge="1" parent="1" source="jVKTxxuh7pFr3yUxkHU7-84" target="jVKTxxuh7pFr3yUxkHU7-80">
          <mxGeometry relative="1" as="geometry">
            <mxPoint x="950" y="370" as="targetPoint" />
          </mxGeometry>
        </mxCell>
        <mxCell id="jVKTxxuh7pFr3yUxkHU7-86" style="edgeStyle=none;shape=connector;rounded=0;orthogonalLoop=1;jettySize=auto;html=1;entryX=1;entryY=0.75;entryDx=0;entryDy=0;strokeColor=default;align=center;verticalAlign=middle;fontFamily=Helvetica;fontSize=11;fontColor=default;labelBackgroundColor=default;endArrow=none;exitX=0;exitY=0.25;exitDx=0;exitDy=0;" edge="1" parent="1" source="jVKTxxuh7pFr3yUxkHU7-87" target="jVKTxxuh7pFr3yUxkHU7-80">
          <mxGeometry relative="1" as="geometry">
            <mxPoint x="1170" y="398.6538461538462" as="sourcePoint" />
          </mxGeometry>
        </mxCell>
        <mxCell id="jVKTxxuh7pFr3yUxkHU7-87" value="bus_schedule_starting_screen" style="swimlane;fontStyle=0;childLayout=stackLayout;horizontal=1;startSize=26;fillColor=none;horizontalStack=0;resizeParent=1;resizeParentMax=0;resizeLast=0;collapsible=1;marginBottom=0;whiteSpace=wrap;html=1;" vertex="1" parent="1">
          <mxGeometry x="1180" y="450" width="170" height="70" as="geometry" />
        </mxCell>
        <mxCell id="jVKTxxuh7pFr3yUxkHU7-88" style="edgeStyle=none;shape=connector;rounded=0;orthogonalLoop=1;jettySize=auto;html=1;entryX=0.5;entryY=0;entryDx=0;entryDy=0;strokeColor=default;align=center;verticalAlign=middle;fontFamily=Helvetica;fontSize=11;fontColor=default;labelBackgroundColor=default;endArrow=none;" edge="1" parent="1" source="jVKTxxuh7pFr3yUxkHU7-89" target="jVKTxxuh7pFr3yUxkHU7-74">
          <mxGeometry relative="1" as="geometry">
            <mxPoint x="519.3600000000006" y="374.2999999999997" as="targetPoint" />
          </mxGeometry>
        </mxCell>
        <mxCell id="jVKTxxuh7pFr3yUxkHU7-89" value="project_finder_screen" style="swimlane;fontStyle=0;childLayout=stackLayout;horizontal=1;startSize=26;fillColor=none;horizontalStack=0;resizeParent=1;resizeParentMax=0;resizeLast=0;collapsible=1;marginBottom=0;whiteSpace=wrap;html=1;" vertex="1" parent="1">
          <mxGeometry x="-620" y="-520" width="140" height="70" as="geometry" />
        </mxCell>
        <mxCell id="jVKTxxuh7pFr3yUxkHU7-90" style="edgeStyle=none;shape=connector;rounded=0;orthogonalLoop=1;jettySize=auto;html=1;entryX=0.25;entryY=1;entryDx=0;entryDy=0;strokeColor=default;align=center;verticalAlign=middle;fontFamily=Helvetica;fontSize=11;fontColor=default;labelBackgroundColor=default;endArrow=none;" edge="1" parent="1" source="jVKTxxuh7pFr3yUxkHU7-91" target="jVKTxxuh7pFr3yUxkHU7-74">
          <mxGeometry relative="1" as="geometry" />
        </mxCell>
        <mxCell id="jVKTxxuh7pFr3yUxkHU7-91" value="tasks_screen" style="swimlane;fontStyle=0;childLayout=stackLayout;horizontal=1;startSize=26;fillColor=none;horizontalStack=0;resizeParent=1;resizeParentMax=0;resizeLast=0;collapsible=1;marginBottom=0;whiteSpace=wrap;html=1;" vertex="1" parent="1">
          <mxGeometry x="-400" y="880" width="140" height="70" as="geometry" />
        </mxCell>
        <mxCell id="jVKTxxuh7pFr3yUxkHU7-92" value="" style="endArrow=none;html=1;rounded=0;entryX=0.5;entryY=1;entryDx=0;entryDy=0;exitX=0.75;exitY=0;exitDx=0;exitDy=0;" edge="1" parent="1" source="jVKTxxuh7pFr3yUxkHU7-80" target="jVKTxxuh7pFr3yUxkHU7-73">
          <mxGeometry width="50" height="50" relative="1" as="geometry">
            <mxPoint x="1020" y="85" as="sourcePoint" />
            <mxPoint x="850" y="40" as="targetPoint" />
          </mxGeometry>
        </mxCell>
        <mxCell id="jVKTxxuh7pFr3yUxkHU7-93" value="food_schedule_screen" style="swimlane;fontStyle=0;childLayout=stackLayout;horizontal=1;startSize=26;fillColor=none;horizontalStack=0;resizeParent=1;resizeParentMax=0;resizeLast=0;collapsible=1;marginBottom=0;whiteSpace=wrap;html=1;" vertex="1" parent="1">
          <mxGeometry x="920" y="910" width="140" height="70" as="geometry" />
        </mxCell>
        <mxCell id="jVKTxxuh7pFr3yUxkHU7-94" style="edgeStyle=none;shape=connector;rounded=0;orthogonalLoop=1;jettySize=auto;html=1;strokeColor=default;align=center;verticalAlign=middle;fontFamily=Helvetica;fontSize=11;fontColor=default;labelBackgroundColor=default;endArrow=none;exitX=1;exitY=0;exitDx=0;exitDy=0;entryX=0.25;entryY=1;entryDx=0;entryDy=0;" edge="1" parent="1" source="jVKTxxuh7pFr3yUxkHU7-93" target="jVKTxxuh7pFr3yUxkHU7-84">
          <mxGeometry relative="1" as="geometry">
            <mxPoint x="890" y="910" as="sourcePoint" />
            <mxPoint x="1090" y="860" as="targetPoint" />
          </mxGeometry>
        </mxCell>
        <mxCell id="jVKTxxuh7pFr3yUxkHU7-95" style="edgeStyle=none;shape=connector;rounded=0;orthogonalLoop=1;jettySize=auto;html=1;exitX=0;exitY=0.75;exitDx=0;exitDy=0;entryX=1;entryY=0.75;entryDx=0;entryDy=0;strokeColor=default;align=center;verticalAlign=middle;fontFamily=Helvetica;fontSize=11;fontColor=default;labelBackgroundColor=default;endArrow=none;" edge="1" parent="1" source="jVKTxxuh7pFr3yUxkHU7-96" target="jVKTxxuh7pFr3yUxkHU7-98">
          <mxGeometry relative="1" as="geometry" />
        </mxCell>
        <mxCell id="jVKTxxuh7pFr3yUxkHU7-96" value="database_UNINFO" style="swimlane;fontStyle=0;childLayout=stackLayout;horizontal=1;startSize=26;fillColor=none;horizontalStack=0;resizeParent=1;resizeParentMax=0;resizeLast=0;collapsible=1;marginBottom=0;whiteSpace=wrap;html=1;" vertex="1" parent="1">
          <mxGeometry x="940" y="1150" width="140" height="70" as="geometry" />
        </mxCell>
        <mxCell id="jVKTxxuh7pFr3yUxkHU7-97" value="filter_screen" style="swimlane;fontStyle=0;childLayout=stackLayout;horizontal=1;startSize=26;fillColor=none;horizontalStack=0;resizeParent=1;resizeParentMax=0;resizeLast=0;collapsible=1;marginBottom=0;whiteSpace=wrap;html=1;" vertex="1" parent="1">
          <mxGeometry x="760" y="1020" width="140" height="70" as="geometry" />
        </mxCell>
        <mxCell id="jVKTxxuh7pFr3yUxkHU7-98" value="critic_screen" style="swimlane;fontStyle=0;childLayout=stackLayout;horizontal=1;startSize=26;fillColor=none;horizontalStack=0;resizeParent=1;resizeParentMax=0;resizeLast=0;collapsible=1;marginBottom=0;whiteSpace=wrap;html=1;" vertex="1" parent="1">
          <mxGeometry x="730" y="1180" width="140" height="70" as="geometry" />
        </mxCell>
        <mxCell id="jVKTxxuh7pFr3yUxkHU7-99" style="edgeStyle=none;shape=connector;rounded=0;orthogonalLoop=1;jettySize=auto;html=1;exitX=0.25;exitY=0;exitDx=0;exitDy=0;entryX=0.5;entryY=1;entryDx=0;entryDy=0;strokeColor=default;align=center;verticalAlign=middle;fontFamily=Helvetica;fontSize=11;fontColor=default;labelBackgroundColor=default;endArrow=none;" edge="1" parent="1" source="jVKTxxuh7pFr3yUxkHU7-100" target="jVKTxxuh7pFr3yUxkHU7-84">
          <mxGeometry relative="1" as="geometry">
            <mxPoint x="1160" y="870.0000000000005" as="targetPoint" />
          </mxGeometry>
        </mxCell>
        <mxCell id="jVKTxxuh7pFr3yUxkHU7-100" value="gym_schedule_screen" style="swimlane;fontStyle=0;childLayout=stackLayout;horizontal=1;startSize=26;fillColor=none;horizontalStack=0;resizeParent=1;resizeParentMax=0;resizeLast=0;collapsible=1;marginBottom=0;whiteSpace=wrap;html=1;" vertex="1" parent="1">
          <mxGeometry x="1110" y="970" width="140" height="70" as="geometry" />
        </mxCell>
        <mxCell id="jVKTxxuh7pFr3yUxkHU7-101" value="free_pitch_schedule_screen" style="swimlane;fontStyle=0;childLayout=stackLayout;horizontal=1;startSize=26;fillColor=none;horizontalStack=0;resizeParent=1;resizeParentMax=0;resizeLast=0;collapsible=1;marginBottom=0;whiteSpace=wrap;html=1;" vertex="1" parent="1">
          <mxGeometry x="1110" y="1080" width="170" height="70" as="geometry" />
        </mxCell>
        <mxCell id="jVKTxxuh7pFr3yUxkHU7-102" value="Extends" style="endArrow=block;endSize=16;endFill=0;html=1;rounded=0;entryX=0.5;entryY=1;entryDx=0;entryDy=0;exitX=0.394;exitY=0.043;exitDx=0;exitDy=0;exitPerimeter=0;" edge="1" parent="1" source="jVKTxxuh7pFr3yUxkHU7-101" target="jVKTxxuh7pFr3yUxkHU7-100">
          <mxGeometry width="160" relative="1" as="geometry">
            <mxPoint x="940" y="1330" as="sourcePoint" />
            <mxPoint x="1090" y="1280" as="targetPoint" />
          </mxGeometry>
        </mxCell>
        <mxCell id="jVKTxxuh7pFr3yUxkHU7-103" value="" style="endArrow=diamondThin;endFill=1;endSize=24;html=1;rounded=0;entryX=0.75;entryY=1;entryDx=0;entryDy=0;exitX=0.75;exitY=0;exitDx=0;exitDy=0;" edge="1" parent="1" source="jVKTxxuh7pFr3yUxkHU7-97">
          <mxGeometry width="160" relative="1" as="geometry">
            <mxPoint x="920" y="1130" as="sourcePoint" />
            <mxPoint x="935" y="980" as="targetPoint" />
          </mxGeometry>
        </mxCell>
        <mxCell id="jVKTxxuh7pFr3yUxkHU7-104" value="Extends" style="endArrow=block;endSize=16;endFill=0;html=1;rounded=0;exitX=0.5;exitY=0;exitDx=0;exitDy=0;" edge="1" parent="1" source="jVKTxxuh7pFr3yUxkHU7-98">
          <mxGeometry width="160" relative="1" as="geometry">
            <mxPoint x="810" y="1110" as="sourcePoint" />
            <mxPoint x="840" y="1090" as="targetPoint" />
          </mxGeometry>
        </mxCell>
        <mxCell id="jVKTxxuh7pFr3yUxkHU7-105" style="edgeStyle=none;shape=connector;rounded=0;orthogonalLoop=1;jettySize=auto;html=1;strokeColor=default;align=center;verticalAlign=middle;fontFamily=Helvetica;fontSize=11;fontColor=default;labelBackgroundColor=default;endArrow=none;exitX=1;exitY=1;exitDx=0;exitDy=0;entryX=0;entryY=0;entryDx=0;entryDy=0;" edge="1" parent="1" source="jVKTxxuh7pFr3yUxkHU7-97" target="jVKTxxuh7pFr3yUxkHU7-96">
          <mxGeometry relative="1" as="geometry">
            <mxPoint x="1080" y="1020" as="sourcePoint" />
            <mxPoint x="1120" y="980" as="targetPoint" />
          </mxGeometry>
        </mxCell>
        <mxCell id="jVKTxxuh7pFr3yUxkHU7-106" style="edgeStyle=none;shape=connector;rounded=0;orthogonalLoop=1;jettySize=auto;html=1;exitX=0;exitY=0;exitDx=0;exitDy=0;entryX=0.75;entryY=1;entryDx=0;entryDy=0;strokeColor=default;align=center;verticalAlign=middle;fontFamily=Helvetica;fontSize=11;fontColor=default;labelBackgroundColor=default;endArrow=none;" edge="1" parent="1" source="jVKTxxuh7pFr3yUxkHU7-108" target="jVKTxxuh7pFr3yUxkHU7-84">
          <mxGeometry relative="1" as="geometry">
            <mxPoint x="1230" y="870.0000000000005" as="targetPoint" />
          </mxGeometry>
        </mxCell>
        <mxCell id="jVKTxxuh7pFr3yUxkHU7-107" style="edgeStyle=none;shape=connector;rounded=0;orthogonalLoop=1;jettySize=auto;html=1;exitX=0.75;exitY=0;exitDx=0;exitDy=0;strokeColor=default;align=center;verticalAlign=middle;fontFamily=Helvetica;fontSize=11;fontColor=default;labelBackgroundColor=default;endArrow=none;entryX=0;entryY=1;entryDx=0;entryDy=0;" edge="1" parent="1" source="jVKTxxuh7pFr3yUxkHU7-108" target="jVKTxxuh7pFr3yUxkHU7-117">
          <mxGeometry relative="1" as="geometry">
            <mxPoint x="1430" y="960" as="targetPoint" />
          </mxGeometry>
        </mxCell>
        <mxCell id="jVKTxxuh7pFr3yUxkHU7-108" value="map_uni_screen" style="swimlane;fontStyle=0;childLayout=stackLayout;horizontal=1;startSize=26;fillColor=none;horizontalStack=0;resizeParent=1;resizeParentMax=0;resizeLast=0;collapsible=1;marginBottom=0;whiteSpace=wrap;html=1;" vertex="1" parent="1">
          <mxGeometry x="1290" y="1010" width="140" height="70" as="geometry" />
        </mxCell>
        <mxCell id="jVKTxxuh7pFr3yUxkHU7-109" style="edgeStyle=none;shape=connector;rounded=0;orthogonalLoop=1;jettySize=auto;html=1;exitX=0.75;exitY=0;exitDx=0;exitDy=0;entryX=0.25;entryY=1;entryDx=0;entryDy=0;strokeColor=default;align=center;verticalAlign=middle;fontFamily=Helvetica;fontSize=11;fontColor=default;labelBackgroundColor=default;endArrow=none;" edge="1" parent="1" target="jVKTxxuh7pFr3yUxkHU7-108">
          <mxGeometry relative="1" as="geometry">
            <mxPoint x="1310" y="1270.0000000000005" as="sourcePoint" />
          </mxGeometry>
        </mxCell>
        <mxCell id="jVKTxxuh7pFr3yUxkHU7-110" style="edgeStyle=none;shape=connector;rounded=0;orthogonalLoop=1;jettySize=auto;html=1;exitX=1;exitY=0.5;exitDx=0;exitDy=0;entryX=0;entryY=0.75;entryDx=0;entryDy=0;strokeColor=default;align=center;verticalAlign=middle;fontFamily=Helvetica;fontSize=11;fontColor=default;labelBackgroundColor=default;endArrow=none;" edge="1" parent="1" target="jVKTxxuh7pFr3yUxkHU7-115">
          <mxGeometry relative="1" as="geometry">
            <mxPoint x="1345" y="1305" as="sourcePoint" />
          </mxGeometry>
        </mxCell>
        <mxCell id="jVKTxxuh7pFr3yUxkHU7-111" style="edgeStyle=none;shape=connector;rounded=0;orthogonalLoop=1;jettySize=auto;html=1;exitX=0;exitY=0.75;exitDx=0;exitDy=0;entryX=1;entryY=0.75;entryDx=0;entryDy=0;strokeColor=default;align=center;verticalAlign=middle;fontFamily=Helvetica;fontSize=11;fontColor=default;labelBackgroundColor=default;endArrow=none;" edge="1" parent="1" source="jVKTxxuh7pFr3yUxkHU7-112" target="jVKTxxuh7pFr3yUxkHU7-172">
          <mxGeometry relative="1" as="geometry">
            <mxPoint x="260" y="1350" as="targetPoint" />
          </mxGeometry>
        </mxCell>
        <mxCell id="jVKTxxuh7pFr3yUxkHU7-112" value="api_map" style="swimlane;fontStyle=0;childLayout=stackLayout;horizontal=1;startSize=26;fillColor=none;horizontalStack=0;resizeParent=1;resizeParentMax=0;resizeLast=0;collapsible=1;marginBottom=0;whiteSpace=wrap;html=1;" vertex="1" parent="1">
          <mxGeometry x="1195" y="1260" width="140" height="70" as="geometry" />
        </mxCell>
        <mxCell id="jVKTxxuh7pFr3yUxkHU7-113" value="result_search_screen" style="swimlane;fontStyle=0;childLayout=stackLayout;horizontal=1;startSize=26;fillColor=none;horizontalStack=0;resizeParent=1;resizeParentMax=0;resizeLast=0;collapsible=1;marginBottom=0;whiteSpace=wrap;html=1;" vertex="1" parent="1">
          <mxGeometry x="1375" y="1130" width="140" height="70" as="geometry" />
        </mxCell>
        <mxCell id="jVKTxxuh7pFr3yUxkHU7-114" value="" style="endArrow=diamondThin;endFill=1;endSize=24;html=1;rounded=0;strokeColor=default;align=center;verticalAlign=middle;fontFamily=Helvetica;fontSize=11;fontColor=default;labelBackgroundColor=default;edgeStyle=none;entryX=0.75;entryY=1;entryDx=0;entryDy=0;exitX=0.25;exitY=0;exitDx=0;exitDy=0;" edge="1" parent="1" source="jVKTxxuh7pFr3yUxkHU7-113" target="jVKTxxuh7pFr3yUxkHU7-108">
          <mxGeometry width="160" relative="1" as="geometry">
            <mxPoint x="1050" y="940" as="sourcePoint" />
            <mxPoint x="1210" y="940" as="targetPoint" />
          </mxGeometry>
        </mxCell>
        <mxCell id="jVKTxxuh7pFr3yUxkHU7-115" value="details_classroom_screen" style="swimlane;fontStyle=0;childLayout=stackLayout;horizontal=1;startSize=26;fillColor=none;horizontalStack=0;resizeParent=1;resizeParentMax=0;resizeLast=0;collapsible=1;marginBottom=0;whiteSpace=wrap;html=1;" vertex="1" parent="1">
          <mxGeometry x="1460" y="1239" width="140" height="70" as="geometry" />
        </mxCell>
        <mxCell id="jVKTxxuh7pFr3yUxkHU7-116" value="" style="endArrow=diamondThin;endFill=1;endSize=24;html=1;rounded=0;strokeColor=default;align=center;verticalAlign=middle;fontFamily=Helvetica;fontSize=11;fontColor=default;labelBackgroundColor=default;edgeStyle=none;entryX=1;entryY=1;entryDx=0;entryDy=0;exitX=0.636;exitY=0.057;exitDx=0;exitDy=0;exitPerimeter=0;" edge="1" parent="1" source="jVKTxxuh7pFr3yUxkHU7-115" target="jVKTxxuh7pFr3yUxkHU7-113">
          <mxGeometry width="160" relative="1" as="geometry">
            <mxPoint x="1680" y="1190" as="sourcePoint" />
            <mxPoint x="1665" y="1140" as="targetPoint" />
          </mxGeometry>
        </mxCell>
        <mxCell id="jVKTxxuh7pFr3yUxkHU7-117" value="fail_message_screen" style="swimlane;fontStyle=0;childLayout=stackLayout;horizontal=1;startSize=26;fillColor=none;horizontalStack=0;resizeParent=1;resizeParentMax=0;resizeLast=0;collapsible=1;marginBottom=0;whiteSpace=wrap;html=1;" vertex="1" parent="1">
          <mxGeometry x="1404" y="900" width="140" height="70" as="geometry" />
        </mxCell>
        <mxCell id="jVKTxxuh7pFr3yUxkHU7-118" value="liveevents_starting_screen" style="swimlane;fontStyle=0;childLayout=stackLayout;horizontal=1;startSize=26;fillColor=none;horizontalStack=0;resizeParent=1;resizeParentMax=0;resizeLast=0;collapsible=1;marginBottom=0;whiteSpace=wrap;html=1;" vertex="1" parent="1">
          <mxGeometry x="1270" y="140" width="170" height="70" as="geometry" />
        </mxCell>
        <mxCell id="jVKTxxuh7pFr3yUxkHU7-119" value="result_events_screen" style="swimlane;fontStyle=0;childLayout=stackLayout;horizontal=1;startSize=26;fillColor=none;horizontalStack=0;resizeParent=1;resizeParentMax=0;resizeLast=0;collapsible=1;marginBottom=0;whiteSpace=wrap;html=1;" vertex="1" parent="1">
          <mxGeometry x="1474" y="30" width="170" height="70" as="geometry" />
        </mxCell>
        <mxCell id="jVKTxxuh7pFr3yUxkHU7-120" value="" style="endArrow=diamondThin;endFill=1;endSize=24;html=1;rounded=0;strokeColor=default;align=center;verticalAlign=middle;fontFamily=Helvetica;fontSize=11;fontColor=default;labelBackgroundColor=default;edgeStyle=none;entryX=1;entryY=0;entryDx=0;entryDy=0;exitX=0;exitY=1;exitDx=0;exitDy=0;" edge="1" parent="1" source="jVKTxxuh7pFr3yUxkHU7-119" target="jVKTxxuh7pFr3yUxkHU7-118">
          <mxGeometry width="160" relative="1" as="geometry">
            <mxPoint x="1130" y="260" as="sourcePoint" />
            <mxPoint x="1290" y="260" as="targetPoint" />
          </mxGeometry>
        </mxCell>
        <mxCell id="jVKTxxuh7pFr3yUxkHU7-121" style="edgeStyle=none;shape=connector;rounded=0;orthogonalLoop=1;jettySize=auto;html=1;exitX=1;exitY=1;exitDx=0;exitDy=0;entryX=0;entryY=0.5;entryDx=0;entryDy=0;strokeColor=default;align=center;verticalAlign=middle;fontFamily=Helvetica;fontSize=11;fontColor=default;labelBackgroundColor=default;endArrow=none;" edge="1" parent="1" source="jVKTxxuh7pFr3yUxkHU7-123" target="jVKTxxuh7pFr3yUxkHU7-119">
          <mxGeometry relative="1" as="geometry" />
        </mxCell>
        <mxCell id="jVKTxxuh7pFr3yUxkHU7-122" style="edgeStyle=none;shape=connector;rounded=0;orthogonalLoop=1;jettySize=auto;html=1;exitX=1;exitY=0.25;exitDx=0;exitDy=0;entryX=0;entryY=0.25;entryDx=0;entryDy=0;strokeColor=default;align=center;verticalAlign=middle;fontFamily=Helvetica;fontSize=11;fontColor=default;labelBackgroundColor=default;endArrow=none;" edge="1" parent="1" source="jVKTxxuh7pFr3yUxkHU7-123">
          <mxGeometry relative="1" as="geometry">
            <mxPoint x="1710" y="-72.5" as="targetPoint" />
          </mxGeometry>
        </mxCell>
        <mxCell id="jVKTxxuh7pFr3yUxkHU7-123" value="liveevents_api" style="swimlane;fontStyle=0;childLayout=stackLayout;horizontal=1;startSize=26;fillColor=none;horizontalStack=0;resizeParent=1;resizeParentMax=0;resizeLast=0;collapsible=1;marginBottom=0;whiteSpace=wrap;html=1;" vertex="1" parent="1">
          <mxGeometry x="1310" y="-70" width="140" height="70" as="geometry" />
        </mxCell>
        <mxCell id="jVKTxxuh7pFr3yUxkHU7-124" value="details_event_screen" style="swimlane;fontStyle=0;childLayout=stackLayout;horizontal=1;startSize=26;fillColor=none;horizontalStack=0;resizeParent=1;resizeParentMax=0;resizeLast=0;collapsible=1;marginBottom=0;whiteSpace=wrap;html=1;" vertex="1" parent="1">
          <mxGeometry x="1710" y="-102.5" width="170" height="70" as="geometry" />
        </mxCell>
        <mxCell id="jVKTxxuh7pFr3yUxkHU7-125" value="Extends" style="endArrow=block;endSize=16;endFill=0;html=1;rounded=0;entryX=1;entryY=0.25;entryDx=0;entryDy=0;exitX=0;exitY=0.75;exitDx=0;exitDy=0;" edge="1" parent="1" target="jVKTxxuh7pFr3yUxkHU7-119">
          <mxGeometry width="160" relative="1" as="geometry">
            <mxPoint x="1710" y="-37.5" as="sourcePoint" />
            <mxPoint x="1583" y="118" as="targetPoint" />
          </mxGeometry>
        </mxCell>
        <mxCell id="jVKTxxuh7pFr3yUxkHU7-126" value="error_message_details_screen" style="swimlane;fontStyle=0;childLayout=stackLayout;horizontal=1;startSize=26;fillColor=none;horizontalStack=0;resizeParent=1;resizeParentMax=0;resizeLast=0;collapsible=1;marginBottom=0;whiteSpace=wrap;html=1;" vertex="1" parent="1">
          <mxGeometry x="1580" y="170" width="170" height="70" as="geometry" />
        </mxCell>
        <mxCell id="jVKTxxuh7pFr3yUxkHU7-127" value="" style="endArrow=diamondThin;endFill=1;endSize=24;html=1;rounded=0;strokeColor=default;align=center;verticalAlign=middle;fontFamily=Helvetica;fontSize=11;fontColor=default;labelBackgroundColor=default;edgeStyle=none;" edge="1" parent="1" source="jVKTxxuh7pFr3yUxkHU7-126">
          <mxGeometry width="160" relative="1" as="geometry">
            <mxPoint x="1180" y="220" as="sourcePoint" />
            <mxPoint x="1590" y="100" as="targetPoint" />
          </mxGeometry>
        </mxCell>
        <mxCell id="jVKTxxuh7pFr3yUxkHU7-128" value="" style="endArrow=diamondThin;endFill=1;endSize=24;html=1;rounded=0;strokeColor=default;align=center;verticalAlign=middle;fontFamily=Helvetica;fontSize=11;fontColor=default;labelBackgroundColor=default;edgeStyle=none;entryX=0.25;entryY=0;entryDx=0;entryDy=0;exitX=0.75;exitY=1;exitDx=0;exitDy=0;" edge="1" parent="1" source="jVKTxxuh7pFr3yUxkHU7-129" target="jVKTxxuh7pFr3yUxkHU7-118">
          <mxGeometry width="160" relative="1" as="geometry">
            <mxPoint x="1290" y="80" as="sourcePoint" />
            <mxPoint x="1340" y="220" as="targetPoint" />
          </mxGeometry>
        </mxCell>
        <mxCell id="jVKTxxuh7pFr3yUxkHU7-129" value="error_no_events_screen" style="swimlane;fontStyle=0;childLayout=stackLayout;horizontal=1;startSize=26;fillColor=none;horizontalStack=0;resizeParent=1;resizeParentMax=0;resizeLast=0;collapsible=1;marginBottom=0;whiteSpace=wrap;html=1;" vertex="1" parent="1">
          <mxGeometry x="1145" y="30" width="170" height="70" as="geometry" />
        </mxCell>
        <mxCell id="jVKTxxuh7pFr3yUxkHU7-130" value="project_screen" style="swimlane;fontStyle=0;childLayout=stackLayout;horizontal=1;startSize=26;fillColor=none;horizontalStack=0;resizeParent=1;resizeParentMax=0;resizeLast=0;collapsible=1;marginBottom=0;whiteSpace=wrap;html=1;" vertex="1" parent="1">
          <mxGeometry x="-840" y="-590" width="140" height="70" as="geometry" />
        </mxCell>
        <mxCell id="jVKTxxuh7pFr3yUxkHU7-131" value="" style="endArrow=diamondThin;endFill=1;endSize=24;html=1;rounded=0;strokeColor=default;align=center;verticalAlign=middle;fontFamily=Helvetica;fontSize=11;fontColor=default;labelBackgroundColor=default;edgeStyle=none;entryX=0;entryY=0.5;entryDx=0;entryDy=0;exitX=1;exitY=0.5;exitDx=0;exitDy=0;" edge="1" parent="1" source="jVKTxxuh7pFr3yUxkHU7-130" target="jVKTxxuh7pFr3yUxkHU7-89">
          <mxGeometry width="160" relative="1" as="geometry">
            <mxPoint x="-700" y="-340" as="sourcePoint" />
            <mxPoint x="-540" y="-340" as="targetPoint" />
          </mxGeometry>
        </mxCell>
        <mxCell id="jVKTxxuh7pFr3yUxkHU7-132" style="edgeStyle=none;shape=connector;rounded=0;orthogonalLoop=1;jettySize=auto;html=1;exitX=0.5;exitY=1;exitDx=0;exitDy=0;entryX=0.093;entryY=-0.057;entryDx=0;entryDy=0;strokeColor=default;align=center;verticalAlign=middle;fontFamily=Helvetica;fontSize=11;fontColor=default;labelBackgroundColor=default;endArrow=none;entryPerimeter=0;" edge="1" parent="1" source="jVKTxxuh7pFr3yUxkHU7-136" target="jVKTxxuh7pFr3yUxkHU7-130">
          <mxGeometry relative="1" as="geometry" />
        </mxCell>
        <mxCell id="jVKTxxuh7pFr3yUxkHU7-133" style="edgeStyle=none;shape=connector;rounded=0;orthogonalLoop=1;jettySize=auto;html=1;exitX=0;exitY=0.25;exitDx=0;exitDy=0;strokeColor=default;align=center;verticalAlign=middle;fontFamily=Helvetica;fontSize=11;fontColor=default;labelBackgroundColor=default;endArrow=none;" edge="1" parent="1" source="jVKTxxuh7pFr3yUxkHU7-136" target="jVKTxxuh7pFr3yUxkHU7-138">
          <mxGeometry relative="1" as="geometry" />
        </mxCell>
        <mxCell id="jVKTxxuh7pFr3yUxkHU7-134" style="edgeStyle=none;shape=connector;rounded=0;orthogonalLoop=1;jettySize=auto;html=1;exitX=1;exitY=0.75;exitDx=0;exitDy=0;entryX=0;entryY=0.5;entryDx=0;entryDy=0;strokeColor=default;align=center;verticalAlign=middle;fontFamily=Helvetica;fontSize=11;fontColor=default;labelBackgroundColor=default;endArrow=none;" edge="1" parent="1" source="jVKTxxuh7pFr3yUxkHU7-136" target="jVKTxxuh7pFr3yUxkHU7-148">
          <mxGeometry relative="1" as="geometry" />
        </mxCell>
        <mxCell id="jVKTxxuh7pFr3yUxkHU7-135" style="edgeStyle=none;shape=connector;rounded=0;orthogonalLoop=1;jettySize=auto;html=1;exitX=0;exitY=0;exitDx=0;exitDy=0;entryX=0;entryY=0.25;entryDx=0;entryDy=0;strokeColor=default;align=center;verticalAlign=middle;fontFamily=Helvetica;fontSize=11;fontColor=default;labelBackgroundColor=default;endArrow=none;" edge="1" parent="1" source="jVKTxxuh7pFr3yUxkHU7-136" target="jVKTxxuh7pFr3yUxkHU7-158">
          <mxGeometry relative="1" as="geometry">
            <Array as="points">
              <mxPoint x="-910" y="-1110" />
            </Array>
          </mxGeometry>
        </mxCell>
        <mxCell id="jVKTxxuh7pFr3yUxkHU7-136" value="databasemg" style="swimlane;fontStyle=0;childLayout=stackLayout;horizontal=1;startSize=26;fillColor=none;horizontalStack=0;resizeParent=1;resizeParentMax=0;resizeLast=0;collapsible=1;marginBottom=0;whiteSpace=wrap;html=1;" vertex="1" parent="1">
          <mxGeometry x="-870" y="-810" width="140" height="70" as="geometry" />
        </mxCell>
        <mxCell id="jVKTxxuh7pFr3yUxkHU7-137" style="edgeStyle=none;shape=connector;rounded=0;orthogonalLoop=1;jettySize=auto;html=1;exitX=0.5;exitY=0;exitDx=0;exitDy=0;entryX=0.5;entryY=1;entryDx=0;entryDy=0;strokeColor=default;align=center;verticalAlign=middle;fontFamily=Helvetica;fontSize=11;fontColor=default;labelBackgroundColor=default;endArrow=none;" edge="1" parent="1" source="jVKTxxuh7pFr3yUxkHU7-138" target="jVKTxxuh7pFr3yUxkHU7-140">
          <mxGeometry relative="1" as="geometry" />
        </mxCell>
        <mxCell id="jVKTxxuh7pFr3yUxkHU7-138" value="project_details_screen" style="swimlane;fontStyle=0;childLayout=stackLayout;horizontal=1;startSize=26;fillColor=none;horizontalStack=0;resizeParent=1;resizeParentMax=0;resizeLast=0;collapsible=1;marginBottom=0;whiteSpace=wrap;html=1;" vertex="1" parent="1">
          <mxGeometry x="-1120" y="-610" width="140" height="140" as="geometry" />
        </mxCell>
        <mxCell id="jVKTxxuh7pFr3yUxkHU7-139" value="" style="endArrow=diamondThin;endFill=1;endSize=24;html=1;rounded=0;strokeColor=default;align=center;verticalAlign=middle;fontFamily=Helvetica;fontSize=11;fontColor=default;labelBackgroundColor=default;edgeStyle=none;entryX=0;entryY=0.75;entryDx=0;entryDy=0;" edge="1" parent="1" target="jVKTxxuh7pFr3yUxkHU7-130">
          <mxGeometry width="160" relative="1" as="geometry">
            <mxPoint x="-980" y="-520" as="sourcePoint" />
            <mxPoint x="-790" y="-340" as="targetPoint" />
          </mxGeometry>
        </mxCell>
        <mxCell id="jVKTxxuh7pFr3yUxkHU7-140" value="project_creator" style="swimlane;fontStyle=0;childLayout=stackLayout;horizontal=1;startSize=26;fillColor=none;horizontalStack=0;resizeParent=1;resizeParentMax=0;resizeLast=0;collapsible=1;marginBottom=0;whiteSpace=wrap;html=1;" vertex="1" parent="1">
          <mxGeometry x="-1100" y="-820" width="140" height="70" as="geometry" />
        </mxCell>
        <mxCell id="jVKTxxuh7pFr3yUxkHU7-141" value="" style="endArrow=diamondThin;endFill=1;endSize=24;html=1;rounded=0;strokeColor=default;align=center;verticalAlign=middle;fontFamily=Helvetica;fontSize=11;fontColor=default;labelBackgroundColor=default;edgeStyle=none;entryX=0.5;entryY=1;entryDx=0;entryDy=0;exitX=0.75;exitY=0;exitDx=0;exitDy=0;" edge="1" parent="1" source="jVKTxxuh7pFr3yUxkHU7-142" target="jVKTxxuh7pFr3yUxkHU7-138">
          <mxGeometry width="160" relative="1" as="geometry">
            <mxPoint x="-1135.1612903225805" y="-350" as="sourcePoint" />
            <mxPoint x="-950" y="-490" as="targetPoint" />
          </mxGeometry>
        </mxCell>
        <mxCell id="jVKTxxuh7pFr3yUxkHU7-142" value="sucess_request_screen" style="swimlane;fontStyle=0;childLayout=stackLayout;horizontal=1;startSize=26;fillColor=none;horizontalStack=0;resizeParent=1;resizeParentMax=0;resizeLast=0;collapsible=1;marginBottom=0;whiteSpace=wrap;html=1;" vertex="1" parent="1">
          <mxGeometry x="-1230" y="-240" width="140" height="70" as="geometry" />
        </mxCell>
        <mxCell id="jVKTxxuh7pFr3yUxkHU7-143" value="fail_request_screen" style="swimlane;fontStyle=0;childLayout=stackLayout;horizontal=1;startSize=26;fillColor=none;horizontalStack=0;resizeParent=1;resizeParentMax=0;resizeLast=0;collapsible=1;marginBottom=0;whiteSpace=wrap;html=1;" vertex="1" parent="1">
          <mxGeometry x="-980" y="-240" width="140" height="70" as="geometry" />
        </mxCell>
        <mxCell id="jVKTxxuh7pFr3yUxkHU7-144" value="" style="endArrow=diamondThin;endFill=1;endSize=24;html=1;rounded=0;strokeColor=default;align=center;verticalAlign=middle;fontFamily=Helvetica;fontSize=11;fontColor=default;labelBackgroundColor=default;edgeStyle=none;entryX=1;entryY=1;entryDx=0;entryDy=0;exitX=0.5;exitY=0;exitDx=0;exitDy=0;" edge="1" parent="1" source="jVKTxxuh7pFr3yUxkHU7-143" target="jVKTxxuh7pFr3yUxkHU7-138">
          <mxGeometry width="160" relative="1" as="geometry">
            <mxPoint x="-1110" y="-490" as="sourcePoint" />
            <mxPoint x="-950" y="-490" as="targetPoint" />
          </mxGeometry>
        </mxCell>
        <mxCell id="jVKTxxuh7pFr3yUxkHU7-145" value="" style="endArrow=diamondThin;endFill=1;endSize=24;html=1;rounded=0;strokeColor=default;align=center;verticalAlign=middle;fontFamily=Helvetica;fontSize=11;fontColor=default;labelBackgroundColor=default;edgeStyle=none;" edge="1" parent="1" source="jVKTxxuh7pFr3yUxkHU7-146">
          <mxGeometry width="160" relative="1" as="geometry">
            <mxPoint x="-820" y="-380" as="sourcePoint" />
            <mxPoint x="-720" y="-520" as="targetPoint" />
          </mxGeometry>
        </mxCell>
        <mxCell id="jVKTxxuh7pFr3yUxkHU7-146" value="no_project_screen" style="swimlane;fontStyle=0;childLayout=stackLayout;horizontal=1;startSize=26;fillColor=none;horizontalStack=0;resizeParent=1;resizeParentMax=0;resizeLast=0;collapsible=1;marginBottom=0;whiteSpace=wrap;html=1;" vertex="1" parent="1">
          <mxGeometry x="-775" y="-380" width="140" height="70" as="geometry" />
        </mxCell>
        <mxCell id="jVKTxxuh7pFr3yUxkHU7-147" value="" style="endArrow=diamondThin;endFill=1;endSize=24;html=1;rounded=0;strokeColor=default;align=center;verticalAlign=middle;fontFamily=Helvetica;fontSize=11;fontColor=default;labelBackgroundColor=default;edgeStyle=none;entryX=1;entryY=0;entryDx=0;entryDy=0;exitX=0.5;exitY=1;exitDx=0;exitDy=0;" edge="1" parent="1" source="jVKTxxuh7pFr3yUxkHU7-148" target="jVKTxxuh7pFr3yUxkHU7-89">
          <mxGeometry width="160" relative="1" as="geometry">
            <mxPoint x="-380" y="-610" as="sourcePoint" />
            <mxPoint x="-400" y="-550" as="targetPoint" />
          </mxGeometry>
        </mxCell>
        <mxCell id="jVKTxxuh7pFr3yUxkHU7-148" value="create_project_screen" style="swimlane;fontStyle=0;childLayout=stackLayout;horizontal=1;startSize=26;fillColor=none;horizontalStack=0;resizeParent=1;resizeParentMax=0;resizeLast=0;collapsible=1;marginBottom=0;whiteSpace=wrap;html=1;" vertex="1" parent="1">
          <mxGeometry x="-453" y="-700" width="140" height="70" as="geometry" />
        </mxCell>
        <mxCell id="jVKTxxuh7pFr3yUxkHU7-149" value="upload_success_project_screen" style="swimlane;fontStyle=0;childLayout=stackLayout;horizontal=1;startSize=26;fillColor=none;horizontalStack=0;resizeParent=1;resizeParentMax=0;resizeLast=0;collapsible=1;marginBottom=0;whiteSpace=wrap;html=1;" vertex="1" parent="1">
          <mxGeometry x="-473" y="-860" width="180" height="70" as="geometry" />
        </mxCell>
        <mxCell id="jVKTxxuh7pFr3yUxkHU7-150" value="" style="endArrow=diamondThin;endFill=1;endSize=24;html=1;rounded=0;strokeColor=default;align=center;verticalAlign=middle;fontFamily=Helvetica;fontSize=11;fontColor=default;labelBackgroundColor=default;edgeStyle=none;entryX=0.5;entryY=0;entryDx=0;entryDy=0;exitX=0.5;exitY=1;exitDx=0;exitDy=0;" edge="1" parent="1" source="jVKTxxuh7pFr3yUxkHU7-149" target="jVKTxxuh7pFr3yUxkHU7-148">
          <mxGeometry width="160" relative="1" as="geometry">
            <mxPoint x="-520" y="-570" as="sourcePoint" />
            <mxPoint x="-360" y="-570" as="targetPoint" />
          </mxGeometry>
        </mxCell>
        <mxCell id="jVKTxxuh7pFr3yUxkHU7-151" value="duplicate_project_error_screen" style="swimlane;fontStyle=0;childLayout=stackLayout;horizontal=1;startSize=26;fillColor=none;horizontalStack=0;resizeParent=1;resizeParentMax=0;resizeLast=0;collapsible=1;marginBottom=0;whiteSpace=wrap;html=1;" vertex="1" parent="1">
          <mxGeometry x="-255" y="-760" width="180" height="70" as="geometry" />
        </mxCell>
        <mxCell id="jVKTxxuh7pFr3yUxkHU7-152" value="" style="endArrow=diamondThin;endFill=1;endSize=24;html=1;rounded=0;strokeColor=default;align=center;verticalAlign=middle;fontFamily=Helvetica;fontSize=11;fontColor=default;labelBackgroundColor=default;edgeStyle=none;entryX=1;entryY=0.5;entryDx=0;entryDy=0;exitX=0;exitY=1;exitDx=0;exitDy=0;" edge="1" parent="1" target="jVKTxxuh7pFr3yUxkHU7-148">
          <mxGeometry width="160" relative="1" as="geometry">
            <mxPoint x="-250" y="-720" as="sourcePoint" />
            <mxPoint x="-120" y="-590" as="targetPoint" />
          </mxGeometry>
        </mxCell>
        <mxCell id="jVKTxxuh7pFr3yUxkHU7-153" value="personal_project_posts_screen" style="swimlane;fontStyle=0;childLayout=stackLayout;horizontal=1;startSize=26;fillColor=none;horizontalStack=0;resizeParent=1;resizeParentMax=0;resizeLast=0;collapsible=1;marginBottom=0;whiteSpace=wrap;html=1;" vertex="1" parent="1">
          <mxGeometry x="-680" y="-830" width="170" height="70" as="geometry" />
        </mxCell>
        <mxCell id="jVKTxxuh7pFr3yUxkHU7-154" value="" style="endArrow=diamondThin;endFill=1;endSize=24;html=1;rounded=0;strokeColor=default;align=center;verticalAlign=middle;fontFamily=Helvetica;fontSize=11;fontColor=default;labelBackgroundColor=default;edgeStyle=none;entryX=1;entryY=0;entryDx=0;entryDy=0;exitX=0.5;exitY=1;exitDx=0;exitDy=0;" edge="1" parent="1" source="jVKTxxuh7pFr3yUxkHU7-153" target="jVKTxxuh7pFr3yUxkHU7-130">
          <mxGeometry width="160" relative="1" as="geometry">
            <mxPoint x="-870" y="-340" as="sourcePoint" />
            <mxPoint x="-710" y="-340" as="targetPoint" />
          </mxGeometry>
        </mxCell>
        <mxCell id="jVKTxxuh7pFr3yUxkHU7-155" value="edit_project_post_screen" style="swimlane;fontStyle=0;childLayout=stackLayout;horizontal=1;startSize=26;fillColor=none;horizontalStack=0;resizeParent=1;resizeParentMax=0;resizeLast=0;collapsible=1;marginBottom=0;whiteSpace=wrap;html=1;" vertex="1" parent="1">
          <mxGeometry x="-650" y="-940" width="170" height="70" as="geometry" />
        </mxCell>
        <mxCell id="jVKTxxuh7pFr3yUxkHU7-156" value="Extends" style="endArrow=block;endSize=16;endFill=0;html=1;rounded=0;strokeColor=default;align=center;verticalAlign=middle;fontFamily=Helvetica;fontSize=11;fontColor=default;labelBackgroundColor=default;edgeStyle=none;entryX=0.629;entryY=0.014;entryDx=0;entryDy=0;exitX=0.75;exitY=1;exitDx=0;exitDy=0;entryPerimeter=0;" edge="1" parent="1" source="jVKTxxuh7pFr3yUxkHU7-155" target="jVKTxxuh7pFr3yUxkHU7-153">
          <mxGeometry width="160" relative="1" as="geometry">
            <mxPoint x="-870" y="-340" as="sourcePoint" />
            <mxPoint x="-710" y="-340" as="targetPoint" />
          </mxGeometry>
        </mxCell>
        <mxCell id="jVKTxxuh7pFr3yUxkHU7-157" style="edgeStyle=none;shape=connector;rounded=0;orthogonalLoop=1;jettySize=auto;html=1;exitX=0.5;exitY=1;exitDx=0;exitDy=0;entryX=0.5;entryY=0;entryDx=0;entryDy=0;strokeColor=default;align=center;verticalAlign=middle;fontFamily=Helvetica;fontSize=11;fontColor=default;labelBackgroundColor=default;endArrow=none;" edge="1" parent="1" source="jVKTxxuh7pFr3yUxkHU7-158" target="jVKTxxuh7pFr3yUxkHU7-155">
          <mxGeometry relative="1" as="geometry" />
        </mxCell>
        <mxCell id="jVKTxxuh7pFr3yUxkHU7-158" value="approval_screen" style="swimlane;fontStyle=0;childLayout=stackLayout;horizontal=1;startSize=26;fillColor=none;horizontalStack=0;resizeParent=1;resizeParentMax=0;resizeLast=0;collapsible=1;marginBottom=0;whiteSpace=wrap;html=1;" vertex="1" parent="1">
          <mxGeometry x="-635" y="-1100" width="170" height="70" as="geometry" />
        </mxCell>
        <mxCell id="jVKTxxuh7pFr3yUxkHU7-159" style="edgeStyle=none;shape=connector;rounded=0;orthogonalLoop=1;jettySize=auto;html=1;exitX=0.25;exitY=1;exitDx=0;exitDy=0;entryX=0.25;entryY=0;entryDx=0;entryDy=0;strokeColor=default;align=center;verticalAlign=middle;fontFamily=Helvetica;fontSize=11;fontColor=default;labelBackgroundColor=default;endArrow=none;" edge="1" parent="1" source="jVKTxxuh7pFr3yUxkHU7-160" target="jVKTxxuh7pFr3yUxkHU7-136">
          <mxGeometry relative="1" as="geometry" />
        </mxCell>
        <mxCell id="jVKTxxuh7pFr3yUxkHU7-160" value="delete_project_post_screen" style="swimlane;fontStyle=0;childLayout=stackLayout;horizontal=1;startSize=26;fillColor=none;horizontalStack=0;resizeParent=1;resizeParentMax=0;resizeLast=0;collapsible=1;marginBottom=0;whiteSpace=wrap;html=1;" vertex="1" parent="1">
          <mxGeometry x="-870" y="-1080" width="170" height="70" as="geometry" />
        </mxCell>
        <mxCell id="jVKTxxuh7pFr3yUxkHU7-161" value="Extends" style="endArrow=block;endSize=16;endFill=0;html=1;rounded=0;strokeColor=default;align=center;verticalAlign=middle;fontFamily=Helvetica;fontSize=11;fontColor=default;labelBackgroundColor=default;edgeStyle=none;entryX=0;entryY=0;entryDx=0;entryDy=0;exitX=0.75;exitY=1;exitDx=0;exitDy=0;" edge="1" parent="1" source="jVKTxxuh7pFr3yUxkHU7-160" target="jVKTxxuh7pFr3yUxkHU7-155">
          <mxGeometry width="160" relative="1" as="geometry">
            <mxPoint x="-780" y="-840" as="sourcePoint" />
            <mxPoint x="-620" y="-840" as="targetPoint" />
          </mxGeometry>
        </mxCell>
        <mxCell id="jVKTxxuh7pFr3yUxkHU7-162" style="edgeStyle=none;shape=connector;rounded=0;orthogonalLoop=1;jettySize=auto;html=1;exitX=0.25;exitY=0;exitDx=0;exitDy=0;strokeColor=default;align=center;verticalAlign=middle;fontFamily=Helvetica;fontSize=11;fontColor=default;labelBackgroundColor=default;endArrow=none;entryX=0.5;entryY=1;entryDx=0;entryDy=0;" edge="1" parent="1" source="jVKTxxuh7pFr3yUxkHU7-163" target="jVKTxxuh7pFr3yUxkHU7-174">
          <mxGeometry relative="1" as="geometry">
            <mxPoint x="505" y="550.0000000000005" as="targetPoint" />
          </mxGeometry>
        </mxCell>
        <mxCell id="jVKTxxuh7pFr3yUxkHU7-163" value="coffee_bar_filters_screen" style="swimlane;fontStyle=0;childLayout=stackLayout;horizontal=1;startSize=26;fillColor=none;horizontalStack=0;resizeParent=1;resizeParentMax=0;resizeLast=0;collapsible=1;marginBottom=0;whiteSpace=wrap;html=1;" vertex="1" parent="1">
          <mxGeometry x="661" y="865" width="140" height="70" as="geometry" />
        </mxCell>
        <mxCell id="jVKTxxuh7pFr3yUxkHU7-164" value="Extends" style="endArrow=block;endSize=16;endFill=0;html=1;rounded=0;strokeColor=default;align=center;verticalAlign=middle;fontFamily=Helvetica;fontSize=11;fontColor=default;labelBackgroundColor=default;edgeStyle=none;entryX=0;entryY=1;entryDx=0;entryDy=0;exitX=1;exitY=0;exitDx=0;exitDy=0;" edge="1" parent="1" source="jVKTxxuh7pFr3yUxkHU7-163" target="jVKTxxuh7pFr3yUxkHU7-83">
          <mxGeometry width="160" relative="1" as="geometry">
            <mxPoint x="780" y="500" as="sourcePoint" />
            <mxPoint x="940" y="500" as="targetPoint" />
          </mxGeometry>
        </mxCell>
        <mxCell id="jVKTxxuh7pFr3yUxkHU7-165" style="edgeStyle=none;shape=connector;rounded=0;orthogonalLoop=1;jettySize=auto;html=1;exitX=1;exitY=0.5;exitDx=0;exitDy=0;strokeColor=default;align=center;verticalAlign=middle;fontFamily=Helvetica;fontSize=11;fontColor=default;labelBackgroundColor=default;endArrow=none;entryX=0;entryY=0.5;entryDx=0;entryDy=0;" edge="1" parent="1" source="jVKTxxuh7pFr3yUxkHU7-167" target="jVKTxxuh7pFr3yUxkHU7-163">
          <mxGeometry relative="1" as="geometry">
            <mxPoint x="440" y="932.5000000000005" as="sourcePoint" />
            <mxPoint x="660" y="910" as="targetPoint" />
          </mxGeometry>
        </mxCell>
        <mxCell id="jVKTxxuh7pFr3yUxkHU7-166" style="edgeStyle=none;shape=connector;rounded=0;orthogonalLoop=1;jettySize=auto;html=1;entryX=0.25;entryY=0;entryDx=0;entryDy=0;strokeColor=default;align=center;verticalAlign=middle;fontFamily=Helvetica;fontSize=11;fontColor=default;labelBackgroundColor=default;endArrow=none;exitX=0.25;exitY=1;exitDx=0;exitDy=0;" edge="1" parent="1" source="jVKTxxuh7pFr3yUxkHU7-167" target="jVKTxxuh7pFr3yUxkHU7-170">
          <mxGeometry relative="1" as="geometry">
            <mxPoint x="385" y="930" as="sourcePoint" />
          </mxGeometry>
        </mxCell>
        <mxCell id="jVKTxxuh7pFr3yUxkHU7-167" value="databsemg_coffee" style="swimlane;fontStyle=0;childLayout=stackLayout;horizontal=1;startSize=26;fillColor=none;horizontalStack=0;resizeParent=1;resizeParentMax=0;resizeLast=0;collapsible=1;marginBottom=0;whiteSpace=wrap;html=1;" vertex="1" parent="1">
          <mxGeometry x="320" y="860" width="140" height="70" as="geometry" />
        </mxCell>
        <mxCell id="jVKTxxuh7pFr3yUxkHU7-168" value="filters_results_screen" style="swimlane;fontStyle=0;childLayout=stackLayout;horizontal=1;startSize=26;fillColor=none;horizontalStack=0;resizeParent=1;resizeParentMax=0;resizeLast=0;collapsible=1;marginBottom=0;whiteSpace=wrap;html=1;" vertex="1" parent="1">
          <mxGeometry x="480" y="990" width="140" height="70" as="geometry" />
        </mxCell>
        <mxCell id="jVKTxxuh7pFr3yUxkHU7-169" value="" style="endArrow=diamondThin;endFill=1;endSize=24;html=1;rounded=0;strokeColor=default;align=center;verticalAlign=middle;fontFamily=Helvetica;fontSize=11;fontColor=default;labelBackgroundColor=default;edgeStyle=none;entryX=0;entryY=1;entryDx=0;entryDy=0;exitX=1;exitY=0;exitDx=0;exitDy=0;" edge="1" parent="1" source="jVKTxxuh7pFr3yUxkHU7-168">
          <mxGeometry width="160" relative="1" as="geometry">
            <mxPoint x="520" y="1010" as="sourcePoint" />
            <mxPoint x="670" y="945" as="targetPoint" />
          </mxGeometry>
        </mxCell>
        <mxCell id="jVKTxxuh7pFr3yUxkHU7-170" value="food/coffee_details_screen" style="swimlane;fontStyle=0;childLayout=stackLayout;horizontal=1;startSize=26;fillColor=none;horizontalStack=0;resizeParent=1;resizeParentMax=0;resizeLast=0;collapsible=1;marginBottom=0;whiteSpace=wrap;html=1;" vertex="1" parent="1">
          <mxGeometry x="350" y="1130" width="140" height="70" as="geometry" />
        </mxCell>
        <mxCell id="jVKTxxuh7pFr3yUxkHU7-171" value="" style="endArrow=diamondThin;endFill=1;endSize=24;html=1;rounded=0;strokeColor=default;align=center;verticalAlign=middle;fontFamily=Helvetica;fontSize=11;fontColor=default;labelBackgroundColor=default;edgeStyle=none;entryX=0;entryY=1;entryDx=0;entryDy=0;exitX=0.5;exitY=0;exitDx=0;exitDy=0;" edge="1" parent="1" source="jVKTxxuh7pFr3yUxkHU7-170" target="jVKTxxuh7pFr3yUxkHU7-168">
          <mxGeometry width="160" relative="1" as="geometry">
            <mxPoint x="520" y="1010" as="sourcePoint" />
            <mxPoint x="680" y="1010" as="targetPoint" />
          </mxGeometry>
        </mxCell>
        <mxCell id="jVKTxxuh7pFr3yUxkHU7-172" value="food/coffee_map_screen" style="swimlane;fontStyle=0;childLayout=stackLayout;horizontal=1;startSize=26;fillColor=none;horizontalStack=0;resizeParent=1;resizeParentMax=0;resizeLast=0;collapsible=1;marginBottom=0;whiteSpace=wrap;html=1;" vertex="1" parent="1">
          <mxGeometry x="110" y="1290" width="140" height="70" as="geometry" />
        </mxCell>
        <mxCell id="jVKTxxuh7pFr3yUxkHU7-173" value="" style="endArrow=diamondThin;endFill=1;endSize=24;html=1;rounded=0;strokeColor=default;align=center;verticalAlign=middle;fontFamily=Helvetica;fontSize=11;fontColor=default;labelBackgroundColor=default;edgeStyle=none;entryX=0;entryY=0.5;entryDx=0;entryDy=0;exitX=1;exitY=0.5;exitDx=0;exitDy=0;" edge="1" parent="1" target="jVKTxxuh7pFr3yUxkHU7-170">
          <mxGeometry width="160" relative="1" as="geometry">
            <mxPoint x="260" y="1315" as="sourcePoint" />
            <mxPoint x="280" y="690" as="targetPoint" />
          </mxGeometry>
        </mxCell>
        <mxCell id="jVKTxxuh7pFr3yUxkHU7-174" value="coffee_bar_filters_error_screen" style="swimlane;fontStyle=0;childLayout=stackLayout;horizontal=1;startSize=26;fillColor=none;horizontalStack=0;resizeParent=1;resizeParentMax=0;resizeLast=0;collapsible=1;marginBottom=0;whiteSpace=wrap;html=1;" vertex="1" parent="1">
          <mxGeometry x="410" y="680" width="170" height="70" as="geometry" />
        </mxCell>
        <mxCell id="jVKTxxuh7pFr3yUxkHU7-175" value="food/coffee_details error_screen" style="swimlane;fontStyle=0;childLayout=stackLayout;horizontal=1;startSize=26;fillColor=none;horizontalStack=0;resizeParent=1;resizeParentMax=0;resizeLast=0;collapsible=1;marginBottom=0;whiteSpace=wrap;html=1;" vertex="1" parent="1">
          <mxGeometry x="540" y="1110" width="140" height="80" as="geometry" />
        </mxCell>
        <mxCell id="jVKTxxuh7pFr3yUxkHU7-176" value="" style="endArrow=diamondThin;endFill=1;endSize=24;html=1;rounded=0;strokeColor=default;align=center;verticalAlign=middle;fontFamily=Helvetica;fontSize=11;fontColor=default;labelBackgroundColor=default;edgeStyle=none;entryX=1;entryY=0.75;entryDx=0;entryDy=0;exitX=0;exitY=0.5;exitDx=0;exitDy=0;" edge="1" parent="1" source="jVKTxxuh7pFr3yUxkHU7-175" target="jVKTxxuh7pFr3yUxkHU7-170">
          <mxGeometry width="160" relative="1" as="geometry">
            <mxPoint x="370" y="1000" as="sourcePoint" />
            <mxPoint x="530" y="1000" as="targetPoint" />
          </mxGeometry>
        </mxCell>
        <mxCell id="jVKTxxuh7pFr3yUxkHU7-177" value="bus_schedule_screen" style="swimlane;fontStyle=0;childLayout=stackLayout;horizontal=1;startSize=26;fillColor=none;horizontalStack=0;resizeParent=1;resizeParentMax=0;resizeLast=0;collapsible=1;marginBottom=0;whiteSpace=wrap;html=1;" vertex="1" parent="1">
          <mxGeometry x="1570" y="320" width="170" height="70" as="geometry" />
        </mxCell>
        <mxCell id="jVKTxxuh7pFr3yUxkHU7-178" value="Extends" style="endArrow=block;endSize=16;endFill=0;html=1;rounded=0;strokeColor=default;align=center;verticalAlign=middle;fontFamily=Helvetica;fontSize=11;fontColor=default;labelBackgroundColor=default;edgeStyle=none;entryX=1;entryY=0.25;entryDx=0;entryDy=0;exitX=0;exitY=0.75;exitDx=0;exitDy=0;" edge="1" parent="1" source="jVKTxxuh7pFr3yUxkHU7-177" target="jVKTxxuh7pFr3yUxkHU7-87">
          <mxGeometry width="160" relative="1" as="geometry">
            <mxPoint x="1130" y="370" as="sourcePoint" />
            <mxPoint x="1290" y="370" as="targetPoint" />
          </mxGeometry>
        </mxCell>
        <mxCell id="jVKTxxuh7pFr3yUxkHU7-179" style="edgeStyle=none;shape=connector;rounded=0;orthogonalLoop=1;jettySize=auto;html=1;exitX=1;exitY=1;exitDx=0;exitDy=0;entryX=0.5;entryY=0;entryDx=0;entryDy=0;strokeColor=default;align=center;verticalAlign=middle;fontFamily=Helvetica;fontSize=11;fontColor=default;labelBackgroundColor=default;endArrow=none;" edge="1" parent="1" source="jVKTxxuh7pFr3yUxkHU7-183" target="jVKTxxuh7pFr3yUxkHU7-177">
          <mxGeometry relative="1" as="geometry" />
        </mxCell>
        <mxCell id="jVKTxxuh7pFr3yUxkHU7-180" style="edgeStyle=none;shape=connector;rounded=0;orthogonalLoop=1;jettySize=auto;html=1;exitX=0;exitY=1;exitDx=0;exitDy=0;entryX=1;entryY=0;entryDx=0;entryDy=0;strokeColor=default;align=center;verticalAlign=middle;fontFamily=Helvetica;fontSize=11;fontColor=default;labelBackgroundColor=default;endArrow=none;" edge="1" parent="1" source="jVKTxxuh7pFr3yUxkHU7-183" target="jVKTxxuh7pFr3yUxkHU7-87">
          <mxGeometry relative="1" as="geometry" />
        </mxCell>
        <mxCell id="jVKTxxuh7pFr3yUxkHU7-181" style="edgeStyle=none;shape=connector;rounded=0;orthogonalLoop=1;jettySize=auto;html=1;exitX=0.5;exitY=1;exitDx=0;exitDy=0;entryX=0.5;entryY=0;entryDx=0;entryDy=0;strokeColor=default;align=center;verticalAlign=middle;fontFamily=Helvetica;fontSize=11;fontColor=default;labelBackgroundColor=default;endArrow=none;" edge="1" parent="1" source="jVKTxxuh7pFr3yUxkHU7-183" target="jVKTxxuh7pFr3yUxkHU7-186">
          <mxGeometry relative="1" as="geometry" />
        </mxCell>
        <mxCell id="jVKTxxuh7pFr3yUxkHU7-182" style="edgeStyle=none;shape=connector;rounded=0;orthogonalLoop=1;jettySize=auto;html=1;exitX=0.75;exitY=1;exitDx=0;exitDy=0;entryX=0;entryY=0;entryDx=0;entryDy=0;strokeColor=default;align=center;verticalAlign=middle;fontFamily=Helvetica;fontSize=11;fontColor=default;labelBackgroundColor=default;endArrow=none;" edge="1" parent="1" source="jVKTxxuh7pFr3yUxkHU7-183" target="jVKTxxuh7pFr3yUxkHU7-188">
          <mxGeometry relative="1" as="geometry">
            <Array as="points">
              <mxPoint x="1570" y="430" />
            </Array>
          </mxGeometry>
        </mxCell>
        <mxCell id="jVKTxxuh7pFr3yUxkHU7-183" value="databasemgMMM" style="swimlane;fontStyle=0;childLayout=stackLayout;horizontal=1;startSize=26;fillColor=none;horizontalStack=0;resizeParent=1;resizeParentMax=0;resizeLast=0;collapsible=1;marginBottom=0;whiteSpace=wrap;html=1;" vertex="1" parent="1">
          <mxGeometry x="1370" y="240" width="170" height="70" as="geometry" />
        </mxCell>
        <mxCell id="jVKTxxuh7pFr3yUxkHU7-184" value="bus_information_screen" style="swimlane;fontStyle=0;childLayout=stackLayout;horizontal=1;startSize=26;fillColor=none;horizontalStack=0;resizeParent=1;resizeParentMax=0;resizeLast=0;collapsible=1;marginBottom=0;whiteSpace=wrap;html=1;" vertex="1" parent="1">
          <mxGeometry x="1800" y="320" width="170" height="70" as="geometry" />
        </mxCell>
        <mxCell id="jVKTxxuh7pFr3yUxkHU7-185" value="" style="endArrow=diamondThin;endFill=1;endSize=24;html=1;rounded=0;strokeColor=default;align=center;verticalAlign=middle;fontFamily=Helvetica;fontSize=11;fontColor=default;labelBackgroundColor=default;edgeStyle=none;entryX=1;entryY=0.5;entryDx=0;entryDy=0;exitX=0;exitY=0.5;exitDx=0;exitDy=0;" edge="1" parent="1" source="jVKTxxuh7pFr3yUxkHU7-184" target="jVKTxxuh7pFr3yUxkHU7-177">
          <mxGeometry width="160" relative="1" as="geometry">
            <mxPoint x="1150" y="350" as="sourcePoint" />
            <mxPoint x="1310" y="350" as="targetPoint" />
          </mxGeometry>
        </mxCell>
        <mxCell id="jVKTxxuh7pFr3yUxkHU7-186" value="bus/train_tickets_screen" style="swimlane;fontStyle=0;childLayout=stackLayout;horizontal=1;startSize=26;fillColor=none;horizontalStack=0;resizeParent=1;resizeParentMax=0;resizeLast=0;collapsible=1;marginBottom=0;whiteSpace=wrap;html=1;" vertex="1" parent="1">
          <mxGeometry x="1440" y="494" width="170" height="70" as="geometry" />
        </mxCell>
        <mxCell id="jVKTxxuh7pFr3yUxkHU7-187" value="" style="endArrow=diamondThin;endFill=1;endSize=24;html=1;rounded=0;strokeColor=default;align=center;verticalAlign=middle;fontFamily=Helvetica;fontSize=11;fontColor=default;labelBackgroundColor=default;edgeStyle=none;entryX=1;entryY=1;entryDx=0;entryDy=0;exitX=0;exitY=0.25;exitDx=0;exitDy=0;" edge="1" parent="1" source="jVKTxxuh7pFr3yUxkHU7-186" target="jVKTxxuh7pFr3yUxkHU7-87">
          <mxGeometry width="160" relative="1" as="geometry">
            <mxPoint x="1360" y="360" as="sourcePoint" />
            <mxPoint x="1520" y="360" as="targetPoint" />
          </mxGeometry>
        </mxCell>
        <mxCell id="jVKTxxuh7pFr3yUxkHU7-188" value="personal_info_screen" style="swimlane;fontStyle=0;childLayout=stackLayout;horizontal=1;startSize=26;fillColor=none;horizontalStack=0;resizeParent=1;resizeParentMax=0;resizeLast=0;collapsible=1;marginBottom=0;whiteSpace=wrap;html=1;" vertex="1" parent="1">
          <mxGeometry x="1680" y="520" width="170" height="70" as="geometry" />
        </mxCell>
        <mxCell id="jVKTxxuh7pFr3yUxkHU7-189" value="Extends" style="endArrow=block;endSize=16;endFill=0;html=1;rounded=0;strokeColor=default;align=center;verticalAlign=middle;fontFamily=Helvetica;fontSize=11;fontColor=default;labelBackgroundColor=default;edgeStyle=none;entryX=1;entryY=0.75;entryDx=0;entryDy=0;exitX=0;exitY=0.75;exitDx=0;exitDy=0;" edge="1" parent="1">
          <mxGeometry width="160" relative="1" as="geometry">
            <mxPoint x="1690" y="582.5000000000005" as="sourcePoint" />
            <mxPoint x="1620" y="556.5" as="targetPoint" />
          </mxGeometry>
        </mxCell>
        <mxCell id="jVKTxxuh7pFr3yUxkHU7-190" value="personal_success_screen" style="swimlane;fontStyle=0;childLayout=stackLayout;horizontal=1;startSize=26;fillColor=none;horizontalStack=0;resizeParent=1;resizeParentMax=0;resizeLast=0;collapsible=1;marginBottom=0;whiteSpace=wrap;html=1;" vertex="1" parent="1">
          <mxGeometry x="1620" y="640" width="170" height="70" as="geometry" />
        </mxCell>
        <mxCell id="jVKTxxuh7pFr3yUxkHU7-191" value="" style="endArrow=diamondThin;endFill=1;endSize=24;html=1;rounded=0;strokeColor=default;align=center;verticalAlign=middle;fontFamily=Helvetica;fontSize=11;fontColor=default;labelBackgroundColor=default;edgeStyle=none;entryX=0.5;entryY=1;entryDx=0;entryDy=0;exitX=0.5;exitY=0;exitDx=0;exitDy=0;" edge="1" parent="1" source="jVKTxxuh7pFr3yUxkHU7-190">
          <mxGeometry width="160" relative="1" as="geometry">
            <mxPoint x="1470" y="450" as="sourcePoint" />
            <mxPoint x="1775" y="600.0000000000005" as="targetPoint" />
          </mxGeometry>
        </mxCell>
        <mxCell id="jVKTxxuh7pFr3yUxkHU7-192" value="error_personal_info_screen" style="swimlane;fontStyle=0;childLayout=stackLayout;horizontal=1;startSize=26;fillColor=none;horizontalStack=0;resizeParent=1;resizeParentMax=0;resizeLast=0;collapsible=1;marginBottom=0;whiteSpace=wrap;html=1;" vertex="1" parent="1">
          <mxGeometry x="1757" y="400" width="170" height="70" as="geometry" />
        </mxCell>
        <mxCell id="jVKTxxuh7pFr3yUxkHU7-193" value="" style="endArrow=diamondThin;endFill=1;endSize=24;html=1;rounded=0;strokeColor=default;align=center;verticalAlign=middle;fontFamily=Helvetica;fontSize=11;fontColor=default;labelBackgroundColor=default;edgeStyle=none;entryX=0.75;entryY=0;entryDx=0;entryDy=0;exitX=0.5;exitY=1;exitDx=0;exitDy=0;" edge="1" parent="1" source="jVKTxxuh7pFr3yUxkHU7-192" target="jVKTxxuh7pFr3yUxkHU7-188">
          <mxGeometry width="160" relative="1" as="geometry">
            <mxPoint x="1460" y="440" as="sourcePoint" />
            <mxPoint x="1620" y="440" as="targetPoint" />
          </mxGeometry>
        </mxCell>
        <mxCell id="jVKTxxuh7pFr3yUxkHU7-194" style="edgeStyle=none;shape=connector;rounded=0;orthogonalLoop=1;jettySize=auto;html=1;entryX=0.75;entryY=0;entryDx=0;entryDy=0;strokeColor=default;align=center;verticalAlign=middle;fontFamily=Helvetica;fontSize=11;fontColor=default;labelBackgroundColor=default;endArrow=none;" edge="1" parent="1" source="jVKTxxuh7pFr3yUxkHU7-195" target="jVKTxxuh7pFr3yUxkHU7-78">
          <mxGeometry relative="1" as="geometry">
            <Array as="points">
              <mxPoint x="-520" y="60" />
            </Array>
          </mxGeometry>
        </mxCell>
        <mxCell id="jVKTxxuh7pFr3yUxkHU7-195" value="forum_database_manager" style="swimlane;fontStyle=0;childLayout=stackLayout;horizontal=1;startSize=26;fillColor=none;horizontalStack=0;resizeParent=1;resizeParentMax=0;resizeLast=0;collapsible=1;marginBottom=0;whiteSpace=wrap;html=1;" vertex="1" parent="1">
          <mxGeometry x="-910" y="-100" width="150" height="70" as="geometry" />
        </mxCell>
        <mxCell id="jVKTxxuh7pFr3yUxkHU7-196" value="forum_temp_storage" style="swimlane;fontStyle=0;childLayout=stackLayout;horizontal=1;startSize=26;fillColor=none;horizontalStack=0;resizeParent=1;resizeParentMax=0;resizeLast=0;collapsible=1;marginBottom=0;whiteSpace=wrap;html=1;" vertex="1" parent="1">
          <mxGeometry x="-370" y="720" width="150" height="70" as="geometry" />
        </mxCell>
        <mxCell id="jVKTxxuh7pFr3yUxkHU7-197" value="forum_discussion_screen" style="swimlane;fontStyle=0;childLayout=stackLayout;horizontal=1;startSize=26;fillColor=none;horizontalStack=0;resizeParent=1;resizeParentMax=0;resizeLast=0;collapsible=1;marginBottom=0;whiteSpace=wrap;html=1;" vertex="1" parent="1">
          <mxGeometry x="-950" y="715" width="150" height="70" as="geometry" />
        </mxCell>
        <mxCell id="jVKTxxuh7pFr3yUxkHU7-198" value="" style="endArrow=diamondThin;endFill=1;endSize=24;html=1;rounded=0;strokeColor=default;align=center;verticalAlign=middle;fontFamily=Helvetica;fontSize=11;fontColor=default;labelBackgroundColor=default;entryX=0;entryY=0.75;entryDx=0;entryDy=0;exitX=1;exitY=0.5;exitDx=0;exitDy=0;" edge="1" parent="1" source="jVKTxxuh7pFr3yUxkHU7-197" target="jVKTxxuh7pFr3yUxkHU7-78">
          <mxGeometry width="160" relative="1" as="geometry">
            <mxPoint x="-520" y="620" as="sourcePoint" />
            <mxPoint x="-360" y="620" as="targetPoint" />
          </mxGeometry>
        </mxCell>
        <mxCell id="jVKTxxuh7pFr3yUxkHU7-199" value="forum_search_bar" style="swimlane;fontStyle=0;childLayout=stackLayout;horizontal=1;startSize=26;fillColor=none;horizontalStack=0;resizeParent=1;resizeParentMax=0;resizeLast=0;collapsible=1;marginBottom=0;whiteSpace=wrap;html=1;" vertex="1" parent="1">
          <mxGeometry x="-630" y="394" width="150" height="70" as="geometry" />
        </mxCell>
        <mxCell id="jVKTxxuh7pFr3yUxkHU7-200" value="" style="endArrow=diamondThin;endFill=1;endSize=24;html=1;rounded=0;strokeColor=default;align=center;verticalAlign=middle;fontFamily=Helvetica;fontSize=11;fontColor=default;labelBackgroundColor=default;exitX=1;exitY=0.5;exitDx=0;exitDy=0;entryX=0;entryY=0.25;entryDx=0;entryDy=0;" edge="1" parent="1" source="jVKTxxuh7pFr3yUxkHU7-199" target="jVKTxxuh7pFr3yUxkHU7-78">
          <mxGeometry width="160" relative="1" as="geometry">
            <mxPoint x="-550" y="515" as="sourcePoint" />
            <mxPoint x="-390" y="490" as="targetPoint" />
          </mxGeometry>
        </mxCell>
        <mxCell id="jVKTxxuh7pFr3yUxkHU7-201" style="edgeStyle=none;shape=connector;rounded=0;orthogonalLoop=1;jettySize=auto;html=1;entryX=0;entryY=0.5;entryDx=0;entryDy=0;strokeColor=default;align=center;verticalAlign=middle;fontFamily=Helvetica;fontSize=11;fontColor=default;labelBackgroundColor=default;endArrow=none;" edge="1" parent="1" source="jVKTxxuh7pFr3yUxkHU7-202" target="jVKTxxuh7pFr3yUxkHU7-199">
          <mxGeometry relative="1" as="geometry" />
        </mxCell>
        <mxCell id="jVKTxxuh7pFr3yUxkHU7-202" value="forum_search_results_screen" style="swimlane;fontStyle=0;childLayout=stackLayout;horizontal=1;startSize=26;fillColor=none;horizontalStack=0;resizeParent=1;resizeParentMax=0;resizeLast=0;collapsible=1;marginBottom=0;whiteSpace=wrap;html=1;" vertex="1" parent="1">
          <mxGeometry x="-827" y="430" width="170" height="70" as="geometry" />
        </mxCell>
        <mxCell id="jVKTxxuh7pFr3yUxkHU7-203" value="button_to_return_to_main_foeum_screen" style="swimlane;fontStyle=0;childLayout=stackLayout;horizontal=1;startSize=26;fillColor=none;horizontalStack=0;resizeParent=1;resizeParentMax=0;resizeLast=0;collapsible=1;marginBottom=0;whiteSpace=wrap;html=1;" vertex="1" parent="1">
          <mxGeometry x="-827" y="560" width="230" height="70" as="geometry" />
        </mxCell>
        <mxCell id="jVKTxxuh7pFr3yUxkHU7-204" value="" style="endArrow=diamondThin;endFill=1;endSize=24;html=1;rounded=0;strokeColor=default;align=center;verticalAlign=middle;fontFamily=Helvetica;fontSize=11;fontColor=default;labelBackgroundColor=default;exitX=0.5;exitY=0;exitDx=0;exitDy=0;entryX=0.5;entryY=1;entryDx=0;entryDy=0;" edge="1" parent="1" source="jVKTxxuh7pFr3yUxkHU7-203" target="jVKTxxuh7pFr3yUxkHU7-202">
          <mxGeometry width="160" relative="1" as="geometry">
            <mxPoint x="-550" y="425" as="sourcePoint" />
            <mxPoint x="-630" y="470" as="targetPoint" />
          </mxGeometry>
        </mxCell>
        <mxCell id="jVKTxxuh7pFr3yUxkHU7-205" value="forum_create_button" style="swimlane;fontStyle=0;childLayout=stackLayout;horizontal=1;startSize=26;fillColor=none;horizontalStack=0;resizeParent=1;resizeParentMax=0;resizeLast=0;collapsible=1;marginBottom=0;whiteSpace=wrap;html=1;" vertex="1" parent="1">
          <mxGeometry x="-827" y="310" width="170" height="70" as="geometry" />
        </mxCell>
        <mxCell id="jVKTxxuh7pFr3yUxkHU7-206" value="" style="endArrow=diamondThin;endFill=1;endSize=24;html=1;rounded=0;strokeColor=default;align=center;verticalAlign=middle;fontFamily=Helvetica;fontSize=11;fontColor=default;labelBackgroundColor=default;entryX=0.397;entryY=0.006;entryDx=0;entryDy=0;exitX=1;exitY=0.25;exitDx=0;exitDy=0;entryPerimeter=0;" edge="1" parent="1" source="jVKTxxuh7pFr3yUxkHU7-205" target="jVKTxxuh7pFr3yUxkHU7-78">
          <mxGeometry width="160" relative="1" as="geometry">
            <mxPoint x="-520" y="435" as="sourcePoint" />
            <mxPoint x="-340" y="522" as="targetPoint" />
            <Array as="points">
              <mxPoint x="-520" y="350" />
            </Array>
          </mxGeometry>
        </mxCell>
        <mxCell id="jVKTxxuh7pFr3yUxkHU7-207" style="edgeStyle=none;shape=connector;rounded=0;orthogonalLoop=1;jettySize=auto;html=1;entryX=0.5;entryY=0;entryDx=0;entryDy=0;strokeColor=default;align=center;verticalAlign=middle;fontFamily=Helvetica;fontSize=11;fontColor=default;labelBackgroundColor=default;endArrow=none;" edge="1" parent="1" source="jVKTxxuh7pFr3yUxkHU7-208" target="jVKTxxuh7pFr3yUxkHU7-205">
          <mxGeometry relative="1" as="geometry" />
        </mxCell>
        <mxCell id="jVKTxxuh7pFr3yUxkHU7-208" value="post_choice_menu" style="swimlane;fontStyle=0;childLayout=stackLayout;horizontal=1;startSize=26;fillColor=none;horizontalStack=0;resizeParent=1;resizeParentMax=0;resizeLast=0;collapsible=1;marginBottom=0;whiteSpace=wrap;html=1;" vertex="1" parent="1">
          <mxGeometry x="-850" y="200" width="170" height="70" as="geometry" />
        </mxCell>
        <mxCell id="jVKTxxuh7pFr3yUxkHU7-209" style="edgeStyle=none;shape=connector;rounded=0;orthogonalLoop=1;jettySize=auto;html=1;entryX=0;entryY=0.5;entryDx=0;entryDy=0;strokeColor=default;align=center;verticalAlign=middle;fontFamily=Helvetica;fontSize=11;fontColor=default;labelBackgroundColor=default;endArrow=none;" edge="1" parent="1" source="jVKTxxuh7pFr3yUxkHU7-212" target="jVKTxxuh7pFr3yUxkHU7-208">
          <mxGeometry relative="1" as="geometry" />
        </mxCell>
        <mxCell id="jVKTxxuh7pFr3yUxkHU7-210" style="edgeStyle=none;shape=connector;rounded=0;orthogonalLoop=1;jettySize=auto;html=1;entryX=0;entryY=0.5;entryDx=0;entryDy=0;strokeColor=default;align=center;verticalAlign=middle;fontFamily=Helvetica;fontSize=11;fontColor=default;labelBackgroundColor=default;endArrow=none;" edge="1" parent="1" source="jVKTxxuh7pFr3yUxkHU7-212" target="jVKTxxuh7pFr3yUxkHU7-195">
          <mxGeometry relative="1" as="geometry" />
        </mxCell>
        <mxCell id="jVKTxxuh7pFr3yUxkHU7-211" style="edgeStyle=none;shape=connector;rounded=0;orthogonalLoop=1;jettySize=auto;html=1;entryX=0.25;entryY=0;entryDx=0;entryDy=0;strokeColor=default;align=center;verticalAlign=middle;fontFamily=Helvetica;fontSize=11;fontColor=default;labelBackgroundColor=default;endArrow=none;" edge="1" parent="1" source="jVKTxxuh7pFr3yUxkHU7-212" target="jVKTxxuh7pFr3yUxkHU7-213">
          <mxGeometry relative="1" as="geometry">
            <Array as="points" />
          </mxGeometry>
        </mxCell>
        <mxCell id="jVKTxxuh7pFr3yUxkHU7-212" value="create_text_post" style="swimlane;fontStyle=0;childLayout=stackLayout;horizontal=1;startSize=26;fillColor=none;horizontalStack=0;resizeParent=1;resizeParentMax=0;resizeLast=0;collapsible=1;marginBottom=0;whiteSpace=wrap;html=1;" vertex="1" parent="1">
          <mxGeometry x="-1300" y="184" width="170" height="70" as="geometry" />
        </mxCell>
        <mxCell id="jVKTxxuh7pFr3yUxkHU7-213" value="forum_library_screen" style="swimlane;fontStyle=0;childLayout=stackLayout;horizontal=1;startSize=26;fillColor=none;horizontalStack=0;resizeParent=1;resizeParentMax=0;resizeLast=0;collapsible=1;marginBottom=0;whiteSpace=wrap;html=1;" vertex="1" parent="1">
          <mxGeometry x="-1370" y="560" width="150" height="70" as="geometry" />
        </mxCell>
        <mxCell id="jVKTxxuh7pFr3yUxkHU7-214" style="edgeStyle=none;shape=connector;rounded=0;orthogonalLoop=1;jettySize=auto;html=1;entryX=0.615;entryY=0.029;entryDx=0;entryDy=0;strokeColor=default;align=center;verticalAlign=middle;fontFamily=Helvetica;fontSize=11;fontColor=default;labelBackgroundColor=default;endArrow=none;entryPerimeter=0;" edge="1" parent="1" source="jVKTxxuh7pFr3yUxkHU7-217" target="jVKTxxuh7pFr3yUxkHU7-208">
          <mxGeometry relative="1" as="geometry" />
        </mxCell>
        <mxCell id="jVKTxxuh7pFr3yUxkHU7-215" style="edgeStyle=none;shape=connector;rounded=0;orthogonalLoop=1;jettySize=auto;html=1;entryX=0.5;entryY=1;entryDx=0;entryDy=0;strokeColor=default;align=center;verticalAlign=middle;fontFamily=Helvetica;fontSize=11;fontColor=default;labelBackgroundColor=default;endArrow=none;" edge="1" parent="1" source="jVKTxxuh7pFr3yUxkHU7-217" target="jVKTxxuh7pFr3yUxkHU7-195">
          <mxGeometry relative="1" as="geometry" />
        </mxCell>
        <mxCell id="jVKTxxuh7pFr3yUxkHU7-216" style="edgeStyle=none;shape=connector;rounded=0;orthogonalLoop=1;jettySize=auto;html=1;strokeColor=default;align=center;verticalAlign=middle;fontFamily=Helvetica;fontSize=11;fontColor=default;labelBackgroundColor=default;endArrow=none;entryX=0.5;entryY=0;entryDx=0;entryDy=0;" edge="1" parent="1" source="jVKTxxuh7pFr3yUxkHU7-217" target="jVKTxxuh7pFr3yUxkHU7-213">
          <mxGeometry relative="1" as="geometry">
            <mxPoint x="-1170" as="targetPoint" />
            <Array as="points">
              <mxPoint x="-1220" y="420" />
            </Array>
          </mxGeometry>
        </mxCell>
        <mxCell id="jVKTxxuh7pFr3yUxkHU7-217" value="create_image_video_post" style="swimlane;fontStyle=0;childLayout=stackLayout;horizontal=1;startSize=26;fillColor=none;horizontalStack=0;resizeParent=1;resizeParentMax=0;resizeLast=0;collapsible=1;marginBottom=0;whiteSpace=wrap;html=1;" vertex="1" parent="1">
          <mxGeometry x="-960" y="90" width="170" height="70" as="geometry" />
        </mxCell>
        <mxCell id="jVKTxxuh7pFr3yUxkHU7-218" style="edgeStyle=none;shape=connector;rounded=0;orthogonalLoop=1;jettySize=auto;html=1;entryX=0.75;entryY=0;entryDx=0;entryDy=0;strokeColor=default;align=center;verticalAlign=middle;fontFamily=Helvetica;fontSize=11;fontColor=default;labelBackgroundColor=default;endArrow=none;exitX=0.5;exitY=1;exitDx=0;exitDy=0;" edge="1" parent="1" source="jVKTxxuh7pFr3yUxkHU7-220" target="jVKTxxuh7pFr3yUxkHU7-213">
          <mxGeometry relative="1" as="geometry">
            <Array as="points" />
          </mxGeometry>
        </mxCell>
        <mxCell id="jVKTxxuh7pFr3yUxkHU7-219" style="edgeStyle=none;shape=connector;rounded=0;orthogonalLoop=1;jettySize=auto;html=1;strokeColor=default;align=center;verticalAlign=middle;fontFamily=Helvetica;fontSize=11;fontColor=default;labelBackgroundColor=default;endArrow=none;" edge="1" parent="1" source="jVKTxxuh7pFr3yUxkHU7-220">
          <mxGeometry relative="1" as="geometry">
            <mxPoint x="-880" y="-30" as="targetPoint" />
            <Array as="points">
              <mxPoint x="-1020" y="150" />
            </Array>
          </mxGeometry>
        </mxCell>
        <mxCell id="jVKTxxuh7pFr3yUxkHU7-220" value="createt_poll_post" style="swimlane;fontStyle=0;childLayout=stackLayout;horizontal=1;startSize=26;fillColor=none;horizontalStack=0;resizeParent=1;resizeParentMax=0;resizeLast=0;collapsible=1;marginBottom=0;whiteSpace=wrap;html=1;" vertex="1" parent="1">
          <mxGeometry x="-1130" y="380" width="170" height="70" as="geometry" />
        </mxCell>
        <mxCell id="jVKTxxuh7pFr3yUxkHU7-221" style="edgeStyle=none;shape=connector;rounded=0;orthogonalLoop=1;jettySize=auto;html=1;entryX=0.87;entryY=0.009;entryDx=0;entryDy=0;entryPerimeter=0;strokeColor=default;align=center;verticalAlign=middle;fontFamily=Helvetica;fontSize=11;fontColor=default;labelBackgroundColor=default;endArrow=none;" edge="1" parent="1" source="jVKTxxuh7pFr3yUxkHU7-208" target="jVKTxxuh7pFr3yUxkHU7-220">
          <mxGeometry relative="1" as="geometry" />
        </mxCell>
        <mxCell id="jVKTxxuh7pFr3yUxkHU7-222" style="edgeStyle=none;shape=connector;rounded=0;orthogonalLoop=1;jettySize=auto;html=1;entryX=1;entryY=0.5;entryDx=0;entryDy=0;strokeColor=default;align=center;verticalAlign=middle;fontFamily=Helvetica;fontSize=11;fontColor=default;labelBackgroundColor=default;endArrow=none;" edge="1" parent="1" source="jVKTxxuh7pFr3yUxkHU7-223" target="jVKTxxuh7pFr3yUxkHU7-213">
          <mxGeometry relative="1" as="geometry" />
        </mxCell>
        <mxCell id="jVKTxxuh7pFr3yUxkHU7-223" value="forum_library_button" style="swimlane;fontStyle=0;childLayout=stackLayout;horizontal=1;startSize=26;fillColor=none;horizontalStack=0;resizeParent=1;resizeParentMax=0;resizeLast=0;collapsible=1;marginBottom=0;whiteSpace=wrap;html=1;" vertex="1" parent="1">
          <mxGeometry x="-630" y="730" width="150" height="70" as="geometry" />
        </mxCell>
        <mxCell id="jVKTxxuh7pFr3yUxkHU7-224" value="" style="endArrow=diamondThin;endFill=1;endSize=24;html=1;rounded=0;strokeColor=default;align=center;verticalAlign=middle;fontFamily=Helvetica;fontSize=11;fontColor=default;labelBackgroundColor=default;entryX=0.25;entryY=1;entryDx=0;entryDy=0;exitX=0.75;exitY=0;exitDx=0;exitDy=0;" edge="1" parent="1" source="jVKTxxuh7pFr3yUxkHU7-223" target="jVKTxxuh7pFr3yUxkHU7-78">
          <mxGeometry width="160" relative="1" as="geometry">
            <mxPoint x="-470" y="439" as="sourcePoint" />
            <mxPoint x="-330" y="567" as="targetPoint" />
          </mxGeometry>
        </mxCell>
        <mxCell id="jVKTxxuh7pFr3yUxkHU7-225" value="" style="endArrow=diamondThin;endFill=1;endSize=24;html=1;rounded=0;strokeColor=default;align=center;verticalAlign=middle;fontFamily=Helvetica;fontSize=11;fontColor=default;labelBackgroundColor=default;entryX=0.5;entryY=1;entryDx=0;entryDy=0;exitX=0.25;exitY=0;exitDx=0;exitDy=0;" edge="1" parent="1" source="jVKTxxuh7pFr3yUxkHU7-227" target="jVKTxxuh7pFr3yUxkHU7-213">
          <mxGeometry width="160" relative="1" as="geometry">
            <mxPoint x="-1275.7142857142858" y="760" as="sourcePoint" />
            <mxPoint x="-732" y="510" as="targetPoint" />
          </mxGeometry>
        </mxCell>
        <mxCell id="jVKTxxuh7pFr3yUxkHU7-226" style="edgeStyle=none;shape=connector;rounded=0;orthogonalLoop=1;jettySize=auto;html=1;entryX=0.25;entryY=1;entryDx=0;entryDy=0;strokeColor=default;align=center;verticalAlign=middle;fontFamily=Helvetica;fontSize=11;fontColor=default;labelBackgroundColor=default;endArrow=none;" edge="1" parent="1" source="jVKTxxuh7pFr3yUxkHU7-227" target="jVKTxxuh7pFr3yUxkHU7-197">
          <mxGeometry relative="1" as="geometry" />
        </mxCell>
        <mxCell id="jVKTxxuh7pFr3yUxkHU7-227" value="my_discussion_screen" style="swimlane;fontStyle=0;childLayout=stackLayout;horizontal=1;startSize=26;fillColor=none;horizontalStack=0;resizeParent=1;resizeParentMax=0;resizeLast=0;collapsible=1;marginBottom=0;whiteSpace=wrap;html=1;" vertex="1" parent="1">
          <mxGeometry x="-1260" y="810" width="150" height="70" as="geometry" />
        </mxCell>
        <mxCell id="jVKTxxuh7pFr3yUxkHU7-228" value="confirmation_window" style="swimlane;fontStyle=0;childLayout=stackLayout;horizontal=1;startSize=26;fillColor=none;horizontalStack=0;resizeParent=1;resizeParentMax=0;resizeLast=0;collapsible=1;marginBottom=0;whiteSpace=wrap;html=1;" vertex="1" parent="1">
          <mxGeometry x="-1530" y="790" width="150" height="70" as="geometry" />
        </mxCell>
        <mxCell id="jVKTxxuh7pFr3yUxkHU7-229" value="" style="endArrow=diamondThin;endFill=1;endSize=24;html=1;rounded=0;strokeColor=default;align=center;verticalAlign=middle;fontFamily=Helvetica;fontSize=11;fontColor=default;labelBackgroundColor=default;entryX=0;entryY=0.5;entryDx=0;entryDy=0;exitX=1;exitY=0.5;exitDx=0;exitDy=0;" edge="1" parent="1" source="jVKTxxuh7pFr3yUxkHU7-228" target="jVKTxxuh7pFr3yUxkHU7-227">
          <mxGeometry width="160" relative="1" as="geometry">
            <mxPoint x="-1212" y="820" as="sourcePoint" />
            <mxPoint x="-1285" y="640" as="targetPoint" />
          </mxGeometry>
        </mxCell>
        <mxCell id="jVKTxxuh7pFr3yUxkHU7-230" value="confirmation_window" style="swimlane;fontStyle=0;childLayout=stackLayout;horizontal=1;startSize=26;fillColor=none;horizontalStack=0;resizeParent=1;resizeParentMax=0;resizeLast=0;collapsible=1;marginBottom=0;whiteSpace=wrap;html=1;" vertex="1" parent="1">
          <mxGeometry x="-1520" y="960" width="150" height="70" as="geometry" />
        </mxCell>
        <mxCell id="jVKTxxuh7pFr3yUxkHU7-231" value="" style="endArrow=diamondThin;endFill=1;endSize=24;html=1;rounded=0;strokeColor=default;align=center;verticalAlign=middle;fontFamily=Helvetica;fontSize=11;fontColor=default;labelBackgroundColor=default;entryX=0.5;entryY=0;entryDx=0;entryDy=0;exitX=0.5;exitY=1;exitDx=0;exitDy=0;" edge="1" parent="1" source="jVKTxxuh7pFr3yUxkHU7-228" target="jVKTxxuh7pFr3yUxkHU7-230">
          <mxGeometry width="160" relative="1" as="geometry">
            <mxPoint x="-1370" y="835" as="sourcePoint" />
            <mxPoint x="-1250" y="855" as="targetPoint" />
          </mxGeometry>
        </mxCell>
        <mxCell id="jVKTxxuh7pFr3yUxkHU7-232" value="export_button" style="swimlane;fontStyle=0;childLayout=stackLayout;horizontal=1;startSize=26;fillColor=none;horizontalStack=0;resizeParent=1;resizeParentMax=0;resizeLast=0;collapsible=1;marginBottom=0;whiteSpace=wrap;html=1;" vertex="1" parent="1">
          <mxGeometry x="-760" y="890" width="140" height="70" as="geometry" />
        </mxCell>
        <mxCell id="jVKTxxuh7pFr3yUxkHU7-233" value="import_button" style="swimlane;fontStyle=0;childLayout=stackLayout;horizontal=1;startSize=26;fillColor=none;horizontalStack=0;resizeParent=1;resizeParentMax=0;resizeLast=0;collapsible=1;marginBottom=0;whiteSpace=wrap;html=1;" vertex="1" parent="1">
          <mxGeometry x="-770" y="1000" width="140" height="70" as="geometry" />
        </mxCell>
        <mxCell id="jVKTxxuh7pFr3yUxkHU7-234" value="" style="endArrow=diamondThin;endFill=1;endSize=24;html=1;rounded=0;strokeColor=default;align=center;verticalAlign=middle;fontFamily=Helvetica;fontSize=11;fontColor=default;labelBackgroundColor=default;entryX=0;entryY=0.25;entryDx=0;entryDy=0;exitX=1;exitY=0.25;exitDx=0;exitDy=0;" edge="1" parent="1" source="jVKTxxuh7pFr3yUxkHU7-232" target="jVKTxxuh7pFr3yUxkHU7-91">
          <mxGeometry width="160" relative="1" as="geometry">
            <mxPoint x="-630" y="1146" as="sourcePoint" />
            <mxPoint x="-428" y="980" as="targetPoint" />
          </mxGeometry>
        </mxCell>
        <mxCell id="jVKTxxuh7pFr3yUxkHU7-235" value="" style="endArrow=diamondThin;endFill=1;endSize=24;html=1;rounded=0;strokeColor=default;align=center;verticalAlign=middle;fontFamily=Helvetica;fontSize=11;fontColor=default;labelBackgroundColor=default;entryX=0;entryY=1;entryDx=0;entryDy=0;exitX=1;exitY=0.25;exitDx=0;exitDy=0;" edge="1" parent="1" source="jVKTxxuh7pFr3yUxkHU7-233" target="jVKTxxuh7pFr3yUxkHU7-91">
          <mxGeometry width="160" relative="1" as="geometry">
            <mxPoint x="-610" y="918" as="sourcePoint" />
            <mxPoint x="-390" y="908" as="targetPoint" />
          </mxGeometry>
        </mxCell>
        <mxCell id="jVKTxxuh7pFr3yUxkHU7-236" value="position_swap_button" style="swimlane;fontStyle=0;childLayout=stackLayout;horizontal=1;startSize=26;fillColor=none;horizontalStack=0;resizeParent=1;resizeParentMax=0;resizeLast=0;collapsible=1;marginBottom=0;whiteSpace=wrap;html=1;" vertex="1" parent="1">
          <mxGeometry x="-782" y="1100" width="140" height="70" as="geometry" />
        </mxCell>
        <mxCell id="jVKTxxuh7pFr3yUxkHU7-237" value="" style="endArrow=diamondThin;endFill=1;endSize=24;html=1;rounded=0;strokeColor=default;align=center;verticalAlign=middle;fontFamily=Helvetica;fontSize=11;fontColor=default;labelBackgroundColor=default;entryX=0.25;entryY=1;entryDx=0;entryDy=0;exitX=1;exitY=0.25;exitDx=0;exitDy=0;" edge="1" parent="1" source="jVKTxxuh7pFr3yUxkHU7-236" target="jVKTxxuh7pFr3yUxkHU7-91">
          <mxGeometry width="160" relative="1" as="geometry">
            <mxPoint x="-620" y="1028" as="sourcePoint" />
            <mxPoint x="-390" y="960" as="targetPoint" />
          </mxGeometry>
        </mxCell>
        <mxCell id="jVKTxxuh7pFr3yUxkHU7-238" value="&lt;div&gt;complete_button&lt;/div&gt;" style="swimlane;fontStyle=0;childLayout=stackLayout;horizontal=1;startSize=26;fillColor=none;horizontalStack=0;resizeParent=1;resizeParentMax=0;resizeLast=0;collapsible=1;marginBottom=0;whiteSpace=wrap;html=1;" vertex="1" parent="1">
          <mxGeometry x="-553" y="1280" width="140" height="70" as="geometry" />
        </mxCell>
        <mxCell id="jVKTxxuh7pFr3yUxkHU7-239" value="" style="endArrow=diamondThin;endFill=1;endSize=24;html=1;rounded=0;strokeColor=default;align=center;verticalAlign=middle;fontFamily=Helvetica;fontSize=11;fontColor=default;labelBackgroundColor=default;exitX=1;exitY=0.25;exitDx=0;exitDy=0;" edge="1" parent="1" source="jVKTxxuh7pFr3yUxkHU7-238">
          <mxGeometry width="160" relative="1" as="geometry">
            <mxPoint x="-632" y="1128" as="sourcePoint" />
            <mxPoint x="-320" y="950" as="targetPoint" />
          </mxGeometry>
        </mxCell>
        <mxCell id="jVKTxxuh7pFr3yUxkHU7-240" value="delete_menu" style="swimlane;fontStyle=0;childLayout=stackLayout;horizontal=1;startSize=26;fillColor=none;horizontalStack=0;resizeParent=1;resizeParentMax=0;resizeLast=0;collapsible=1;marginBottom=0;whiteSpace=wrap;html=1;" vertex="1" parent="1">
          <mxGeometry x="-1030" y="1200" width="140" height="70" as="geometry" />
        </mxCell>
        <mxCell id="jVKTxxuh7pFr3yUxkHU7-241" value="&lt;div&gt;edit_button&lt;/div&gt;" style="swimlane;fontStyle=0;childLayout=stackLayout;horizontal=1;startSize=26;fillColor=none;horizontalStack=0;resizeParent=1;resizeParentMax=0;resizeLast=0;collapsible=1;marginBottom=0;whiteSpace=wrap;html=1;" vertex="1" parent="1">
          <mxGeometry x="-1040" y="980" width="140" height="70" as="geometry" />
        </mxCell>
        <mxCell id="jVKTxxuh7pFr3yUxkHU7-242" value="" style="endArrow=diamondThin;endFill=1;endSize=24;html=1;rounded=0;strokeColor=default;align=center;verticalAlign=middle;fontFamily=Helvetica;fontSize=11;fontColor=default;labelBackgroundColor=default;entryX=0;entryY=0.75;entryDx=0;entryDy=0;exitX=1;exitY=0.25;exitDx=0;exitDy=0;" edge="1" parent="1" source="jVKTxxuh7pFr3yUxkHU7-241" target="jVKTxxuh7pFr3yUxkHU7-91">
          <mxGeometry width="160" relative="1" as="geometry">
            <mxPoint x="-690" y="1000" as="sourcePoint" />
            <mxPoint x="-460" y="932" as="targetPoint" />
          </mxGeometry>
        </mxCell>
        <mxCell id="jVKTxxuh7pFr3yUxkHU7-243" value="&lt;div&gt;editable_list_screen&lt;/div&gt;" style="swimlane;fontStyle=0;childLayout=stackLayout;horizontal=1;startSize=26;fillColor=none;horizontalStack=0;resizeParent=1;resizeParentMax=0;resizeLast=0;collapsible=1;marginBottom=0;whiteSpace=wrap;html=1;" vertex="1" parent="1">
          <mxGeometry x="-1240" y="1090" width="140" height="70" as="geometry" />
        </mxCell>
        <mxCell id="jVKTxxuh7pFr3yUxkHU7-244" value="" style="endArrow=diamondThin;endFill=1;endSize=24;html=1;rounded=0;strokeColor=default;align=center;verticalAlign=middle;fontFamily=Helvetica;fontSize=11;fontColor=default;labelBackgroundColor=default;entryX=0;entryY=0.5;entryDx=0;entryDy=0;exitX=0.636;exitY=0.005;exitDx=0;exitDy=0;exitPerimeter=0;" edge="1" parent="1" source="jVKTxxuh7pFr3yUxkHU7-243" target="jVKTxxuh7pFr3yUxkHU7-241">
          <mxGeometry width="160" relative="1" as="geometry">
            <mxPoint x="-1450" y="1235" as="sourcePoint" />
            <mxPoint x="-950" y="1170" as="targetPoint" />
          </mxGeometry>
        </mxCell>
        <mxCell id="jVKTxxuh7pFr3yUxkHU7-245" value="&lt;div&gt;delete_button&lt;/div&gt;" style="swimlane;fontStyle=0;childLayout=stackLayout;horizontal=1;startSize=26;fillColor=none;horizontalStack=0;resizeParent=1;resizeParentMax=0;resizeLast=0;collapsible=1;marginBottom=0;whiteSpace=wrap;html=1;" vertex="1" parent="1">
          <mxGeometry x="-730" y="1219" width="140" height="70" as="geometry" />
        </mxCell>
        <mxCell id="jVKTxxuh7pFr3yUxkHU7-246" value="" style="endArrow=diamondThin;endFill=1;endSize=24;html=1;rounded=0;strokeColor=default;align=center;verticalAlign=middle;fontFamily=Helvetica;fontSize=11;fontColor=default;labelBackgroundColor=default;exitX=1;exitY=0;exitDx=0;exitDy=0;" edge="1" parent="1" source="jVKTxxuh7pFr3yUxkHU7-245">
          <mxGeometry width="160" relative="1" as="geometry">
            <mxPoint x="-403" y="1308" as="sourcePoint" />
            <mxPoint x="-350" y="950" as="targetPoint" />
          </mxGeometry>
        </mxCell>
        <mxCell id="jVKTxxuh7pFr3yUxkHU7-247" value="" style="endArrow=diamondThin;endFill=1;endSize=24;html=1;rounded=0;strokeColor=default;align=center;verticalAlign=middle;fontFamily=Helvetica;fontSize=11;fontColor=default;labelBackgroundColor=default;entryX=0;entryY=0.5;entryDx=0;entryDy=0;exitX=1;exitY=0.75;exitDx=0;exitDy=0;" edge="1" parent="1" source="jVKTxxuh7pFr3yUxkHU7-240" target="jVKTxxuh7pFr3yUxkHU7-245">
          <mxGeometry width="160" relative="1" as="geometry">
            <mxPoint x="-930.5" y="1235" as="sourcePoint" />
            <mxPoint x="-819.5" y="1160" as="targetPoint" />
          </mxGeometry>
        </mxCell>
        <mxCell id="jVKTxxuh7pFr3yUxkHU7-248" value="&lt;div&gt;error_news_screen&lt;/div&gt;" style="swimlane;fontStyle=0;childLayout=stackLayout;horizontal=1;startSize=26;fillColor=none;horizontalStack=0;resizeParent=1;resizeParentMax=0;resizeLast=0;collapsible=1;marginBottom=0;whiteSpace=wrap;html=1;" vertex="1" parent="1">
          <mxGeometry x="730" y="190" width="140" height="70" as="geometry" />
        </mxCell>
        <mxCell id="jVKTxxuh7pFr3yUxkHU7-249" value="Extends" style="endArrow=block;endSize=16;endFill=0;html=1;rounded=0;strokeColor=default;align=center;verticalAlign=middle;fontFamily=Helvetica;fontSize=11;fontColor=default;labelBackgroundColor=default;edgeStyle=none;exitX=0.75;exitY=1;exitDx=0;exitDy=0;" edge="1" parent="1" source="jVKTxxuh7pFr3yUxkHU7-248" target="jVKTxxuh7pFr3yUxkHU7-80">
          <mxGeometry width="160" relative="1" as="geometry">
            <mxPoint x="987" y="190" as="sourcePoint" />
            <mxPoint x="767" y="285" as="targetPoint" />
          </mxGeometry>
        </mxCell>
        <mxCell id="jVKTxxuh7pFr3yUxkHU7-250" value="news_provider_api" style="swimlane;fontStyle=0;childLayout=stackLayout;horizontal=1;startSize=26;fillColor=none;horizontalStack=0;resizeParent=1;resizeParentMax=0;resizeLast=0;collapsible=1;marginBottom=0;whiteSpace=wrap;html=1;" vertex="1" parent="1">
          <mxGeometry x="720" y="80" width="140" height="70" as="geometry" />
        </mxCell>
        <mxCell id="jVKTxxuh7pFr3yUxkHU7-251" value="" style="endArrow=none;html=1;rounded=0;exitX=0.207;exitY=0;exitDx=0;exitDy=0;exitPerimeter=0;" edge="1" parent="1" source="jVKTxxuh7pFr3yUxkHU7-80">
          <mxGeometry width="50" height="50" relative="1" as="geometry">
            <mxPoint x="927" y="310" as="sourcePoint" />
            <mxPoint x="860" y="140" as="targetPoint" />
          </mxGeometry>
        </mxCell>
        <mxCell id="jVKTxxuh7pFr3yUxkHU7-252" value="article_screen" style="swimlane;fontStyle=0;childLayout=stackLayout;horizontal=1;startSize=26;fillColor=none;horizontalStack=0;resizeParent=1;resizeParentMax=0;resizeLast=0;collapsible=1;marginBottom=0;whiteSpace=wrap;html=1;" vertex="1" parent="1">
          <mxGeometry x="810" y="-40" width="140" height="70" as="geometry" />
        </mxCell>
        <mxCell id="jVKTxxuh7pFr3yUxkHU7-253" value="" style="endArrow=none;html=1;rounded=0;exitX=0.45;exitY=0.029;exitDx=0;exitDy=0;exitPerimeter=0;entryX=0.75;entryY=1;entryDx=0;entryDy=0;" edge="1" parent="1" source="jVKTxxuh7pFr3yUxkHU7-80" target="jVKTxxuh7pFr3yUxkHU7-252">
          <mxGeometry width="50" height="50" relative="1" as="geometry">
            <mxPoint x="930" y="230" as="sourcePoint" />
            <mxPoint x="880" y="50" as="targetPoint" />
          </mxGeometry>
        </mxCell>
        <mxCell id="jVKTxxuh7pFr3yUxkHU7-254" value="" style="endArrow=none;html=1;rounded=0;entryX=0.5;entryY=1;entryDx=0;entryDy=0;exitX=0.75;exitY=0;exitDx=0;exitDy=0;" edge="1" parent="1" source="jVKTxxuh7pFr3yUxkHU7-250" target="jVKTxxuh7pFr3yUxkHU7-252">
          <mxGeometry width="50" height="50" relative="1" as="geometry">
            <mxPoint x="870" y="200" as="sourcePoint" />
            <mxPoint x="920" y="150" as="targetPoint" />
          </mxGeometry>
        </mxCell>
        <mxCell id="jVKTxxuh7pFr3yUxkHU7-255" value="empty_tasks_screen" style="swimlane;fontStyle=0;childLayout=stackLayout;horizontal=1;startSize=26;fillColor=none;horizontalStack=0;resizeParent=1;resizeParentMax=0;resizeLast=0;collapsible=1;marginBottom=0;whiteSpace=wrap;html=1;" vertex="1" parent="1">
          <mxGeometry x="-300" y="1030" width="140" height="70" as="geometry" />
        </mxCell>
        <mxCell id="jVKTxxuh7pFr3yUxkHU7-256" value="Extends" style="endArrow=block;endSize=16;endFill=0;html=1;rounded=0;strokeColor=default;align=center;verticalAlign=middle;fontFamily=Helvetica;fontSize=11;fontColor=default;labelBackgroundColor=default;edgeStyle=none;exitX=0.357;exitY=0;exitDx=0;exitDy=0;exitPerimeter=0;" edge="1" parent="1" source="jVKTxxuh7pFr3yUxkHU7-255">
          <mxGeometry width="160" relative="1" as="geometry">
            <mxPoint x="-270" y="1020" as="sourcePoint" />
            <mxPoint x="-270" y="950" as="targetPoint" />
          </mxGeometry>
        </mxCell>
        <mxCell id="jVKTxxuh7pFr3yUxkHU7-257" value="" style="endArrow=none;html=1;rounded=0;entryX=0;entryY=0.75;entryDx=0;entryDy=0;exitX=1;exitY=0.5;exitDx=0;exitDy=0;" edge="1" parent="1" source="jVKTxxuh7pFr3yUxkHU7-233" target="jVKTxxuh7pFr3yUxkHU7-255">
          <mxGeometry width="50" height="50" relative="1" as="geometry">
            <mxPoint x="-450" y="1180" as="sourcePoint" />
            <mxPoint x="-400" y="1130" as="targetPoint" />
          </mxGeometry>
        </mxCell>
        <mxCell id="jVKTxxuh7pFr3yUxkHU7-258" value="" style="endArrow=none;html=1;rounded=0;entryX=0;entryY=0.5;entryDx=0;entryDy=0;" edge="1" parent="1" target="jVKTxxuh7pFr3yUxkHU7-255">
          <mxGeometry width="50" height="50" relative="1" as="geometry">
            <mxPoint x="-300" y="1065" as="sourcePoint" />
            <mxPoint x="-350" y="1010" as="targetPoint" />
          </mxGeometry>
        </mxCell>
      </root>
    </mxGraphModel>
  </diagram>
</mxfile>
